<svg xmlns="http://www.w3.org/2000/svg" xmlns:xlink="http://www.w3.org/1999/xlink" width="1344.158" height="1168.409" viewBox="0 0 1344.158 1168.409"><defs><style>.a{fill:url(#a);}</style><linearGradient id="a" x1="0.128" y1="0.245" x2="0.628" y2="1.241" gradientUnits="objectBoundingBox"><stop offset="0" stop-color="#c9060d"/><stop offset="0.295" stop-color="#ff4a3d"/><stop offset="0.603" stop-color="#fa0404"/><stop offset="0.615" stop-color="#f60405"/><stop offset="0.682" stop-color="#e10508"/><stop offset="0.758" stop-color="#d3060b"/><stop offset="0.85" stop-color="#cb060d"/><stop offset="1" stop-color="#c8060d"/></linearGradient></defs><path class="a" d="M22.914,1174.692a17.582,17.582,0,0,1-7.725-1.931A15.271,15.271,0,0,1,9.4,1151.906L573.674,174.449l454.2,787.063H1203.61L665.982,30.013a15.271,15.271,0,0,1,5.793-20.854,14.951,14.951,0,0,1,20.856,5.793l564.278,977.457H348.117l-87.673,152.161H1336.086a15.448,15.448,0,1,1,0,30.9H207.144L325.716,970.009a.378.378,0,0,1,.386-.386L661.733,388.787l-88.06-152.933L36.046,1166.968A15.083,15.083,0,0,1,22.914,1174.692ZM365.884,961.126H992.73L679.5,418.524Z" transform="translate(-7.377 -7.056)"/></svg>