<svg xmlns="http://www.w3.org/2000/svg" xmlns:xlink="http://www.w3.org/1999/xlink" width="631.297" height="651.5" viewBox="0 0 631.297 651.5"><defs><style>.a{fill:#d26383;}.b{fill:#9c033a;}.c{fill:#fff;}.d{fill:#3a4d54;}.ak,.al,.am,.an,.ao,.ap,.aq,.ar,.as,.at,.au,.av,.aw,.ax,.ay,.az,.ba,.bb,.d,.i,.j,.k,.u{fill-rule:evenodd;}.e{fill:#00aada;}.f{fill:#28b8eb;}.g{fill:#028bb8;}.h{fill:#019bc6;}.i{fill:#00acd3;}.j{fill:#23c2ee;}.k,.m{fill:#d4eef1;}.l{fill:#bfdbe0;}.n{fill:#090;}.o{fill:#cb3837;}.p{fill:#5b4282;}.q{fill:#c5c3b7;}.r{fill:#0868ac;}.bg,.s{fill:none;}.t{fill:#764abc;}.u{fill:#cb6699;}.v{fill:#1572b6;}.w{fill:#33a9dc;}.x{fill:#ebebeb;}.y{fill:#e44d26;}.z{fill:#f16529;}.aa{fill:#f0db4f;}.ab{fill:#323330;}.ac{fill:#61dafb;}.ad{fill:#35495e;}.ae{fill:#41b883;}.af,.ag{fill:#dd3f24;}.ag{font-size:7px;font-family:MyriadPro-Regular, Myriad Pro;}.ah{fill:#df5052;}.ai{fill:#83cd29;}.aj{fill:#003a2b;}.ak{fill:#94795d;}.al{fill:#50382b;}.am{fill:#4f382b;}.an{fill:#4f372b;}.ao{fill:#439934;}.ap{fill:#45a538;}.aq{fill:#46a037;}.ar{fill:#409433;}.as{fill:#4faa41;}.at{fill:#4aa73c;}.au{fill:#57ae47;}.av{fill:#60b24f;}.aw{fill:#a9aa88;}.ax{fill:#b6b598;}.ay{fill:#c2c1a7;}.az{fill:#cecdb7;}.ba{fill:#dbdac7;}.bb{fill:#ebe9dc;}.bc{fill:url(#a);}.bd{fill:url(#b);}.be{opacity:0.444;fill:url(#c);}.bf{fill:#336791;}.bg{stroke:#fff;stroke-linecap:round;stroke-linejoin:round;stroke-width:3px;}</style><linearGradient id="a" x1="0.758" y1="16.144" x2="2.083" y2="15.015" gradientUnits="objectBoundingBox"><stop offset="0" stop-color="#5a9fd4"/><stop offset="1" stop-color="#306998"/></linearGradient><linearGradient id="b" x1="2.241" y1="13.881" x2="1.769" y2="14.539" gradientUnits="objectBoundingBox"><stop offset="0" stop-color="#ffd43b"/><stop offset="1" stop-color="#ffe873"/></linearGradient><radialGradient id="c" cx="-193.047" cy="-209.921" r="21.646" gradientTransform="matrix(0, -0.194, -0.852, 0, -435.975, -352.374)" gradientUnits="userSpaceOnUse"><stop offset="0" stop-color="#b8b8b8" stop-opacity="0.498"/><stop offset="1" stop-color="#7f7f7f" stop-opacity="0"/></radialGradient></defs><g transform="translate(-1106 -282)"><g transform="translate(1123 858)"><path class="a" d="M63.726,16.727,39.106,2.557a3.023,3.023,0,0,0-1.58-.357,3.616,3.616,0,0,0-1.58.357L11.478,16.778A3.5,3.5,0,0,0,10,19.531V47.923a3,3,0,0,0,.51,1.784L64.949,18.1a3.61,3.61,0,0,0-1.223-1.376Z" transform="translate(-10 -2.2)"/><path class="b" d="M10.7,64.9a2.928,2.928,0,0,0,.968.968L36.238,80.093a3.023,3.023,0,0,0,1.58.357,3.616,3.616,0,0,0,1.58-.357L63.865,65.872a3.5,3.5,0,0,0,1.478-2.753V34.727a2.894,2.894,0,0,0-.306-1.427L10.7,64.9Z" transform="translate(-10.343 -17.447)"/><path class="c" d="M55.492,50.8a12.514,12.514,0,1,1,0-12.285l6.627-3.823a20.128,20.128,0,1,0-.051,19.981L55.492,50.8Z" transform="translate(-17.109 -13.133)"/><g transform="translate(36.752 27.678)"><path class="c" d="M82.1,59.2h2.651V56.5h2.243v2.7h2.7v2.243h-2.7v2.651H84.751V61.444H82.1Zm9.43,0h2.651V56.5h2.243v2.7h2.7v2.243h-2.7v2.651H94.181V61.444H91.53Z" transform="translate(-82.1 -56.5)"/></g></g><g transform="translate(1632 845)"><path class="d" d="M16.895,95.257V88.488A1.471,1.471,0,0,1,18.4,86.9h.251a1.517,1.517,0,0,1,1.5,1.588v14.207a8.873,8.873,0,0,1-4.68,7.939,8.762,8.762,0,0,1-4.513,1.254h-.669a8.873,8.873,0,0,1-7.939-4.68A8.762,8.762,0,0,1,1.1,102.695v-.669a8.873,8.873,0,0,1,4.68-7.939,8.762,8.762,0,0,1,4.513-1.254h.669a9.2,9.2,0,0,1,5.933,2.424Zm-12.619,7.1a6.2,6.2,0,0,0,3.426,5.6,5.784,5.784,0,0,0,2.841.752,6.164,6.164,0,0,0,5.516-3.259,6.209,6.209,0,0,0-1.922-8.273A6.149,6.149,0,0,0,4.861,99.77a5.841,5.841,0,0,0-.585,2.591Zm26.909-9.443H31.6a8.955,8.955,0,0,1,8.273,5.014,8,8,0,0,1,1.086,4.178v.669a8.873,8.873,0,0,1-4.68,7.939,8.762,8.762,0,0,1-4.513,1.254H31.1a8.873,8.873,0,0,1-7.939-4.68,8.762,8.762,0,0,1-1.254-4.513v-.669a9.036,9.036,0,0,1,4.68-7.939A8.3,8.3,0,0,1,31.185,92.917Zm-6.017,9.443a6.432,6.432,0,0,0,6.435,6.268,6.2,6.2,0,0,0,5.432-3.259,6.023,6.023,0,0,0,.836-3.176,6.166,6.166,0,0,0-2.925-5.265,6.229,6.229,0,0,0-9.109,2.758,5.5,5.5,0,0,0-.669,2.674ZM54.25,96.343a5.182,5.182,0,0,0-1.922-.334,6.074,6.074,0,0,0-5.766,3.761,5.6,5.6,0,0,0-.585,2.591,6.18,6.18,0,0,0,3.844,5.85,7.36,7.36,0,0,0,3.008.5,7.1,7.1,0,0,0,2.841-.919l.167-.084h.669a1.378,1.378,0,0,1,1.254,1.421v.334c0,1.922-3.593,2.424-4.931,2.507a8.95,8.95,0,0,1-9.694-6.853,7.727,7.727,0,0,1-.334-2.424v-.669a9.036,9.036,0,0,1,4.68-7.939,8.762,8.762,0,0,1,4.513-1.254h.669a8.55,8.55,0,0,1,4.68,1.421l.084.084.084.084a1.412,1.412,0,0,1,.251.836v.334c0,.836-.585,1.254-1.337,1.421h-.251a8.771,8.771,0,0,1-1.922-.669Zm10.363,2.173c1.254-1.254,2.507-2.507,3.761-3.677.334-.334,1.671-1.755,2.173-1.755h.669A1.378,1.378,0,0,1,72.468,94.5v.334a2.553,2.553,0,0,1-1,1.5L69.209,98.6l-3.844,3.928c1.671,1.671,3.343,3.343,4.931,5.014l1.337,1.421c.167.167.418.334.5.585a1.348,1.348,0,0,1,.251.752v.418a1.514,1.514,0,0,1-1.421,1.337h-.251c-.5,0-1.086-.585-1.5-.919a26.653,26.653,0,0,1-2.173-2.173l-2.424-2.424v3.844a1.471,1.471,0,0,1-1.5,1.588h-.251a1.517,1.517,0,0,1-1.5-1.588V88.571a1.471,1.471,0,0,1,1.5-1.588h.251a1.471,1.471,0,0,1,1.5,1.588v9.945ZM104.392,93h.334a1.537,1.537,0,0,1,1.588,1.588c0,1.337-1.254,1.671-2.34,1.671a5.42,5.42,0,0,0-3.761,1.839,6.042,6.042,0,0,0-1.755,4.513V110.3a1.471,1.471,0,0,1-1.5,1.588H96.7a1.517,1.517,0,0,1-1.5-1.588v-8.19a8.934,8.934,0,0,1,4.095-7.521A9.189,9.189,0,0,1,104.392,93ZM81.745,108.294a7.837,7.837,0,0,0,3.677.167,8.706,8.706,0,0,1,2.758-.836h.167a1.829,1.829,0,0,1,.836.752,1.544,1.544,0,0,1-.585,2.173l-.251.167a9.017,9.017,0,0,1-9.276-.167,8.57,8.57,0,0,1-3.343-3.343l-.167-.334a9.106,9.106,0,0,1,.5-10.112,8.737,8.737,0,0,1,2.925-2.591l.418-.251a9.038,9.038,0,0,1,8.858-.084,8.763,8.763,0,0,1,3.761,3.426l.167.251c.669,1.086-.167,2.089-1,2.758-1,.752-2.006,1.671-2.925,2.507Q84.878,105.536,81.745,108.294Zm-2.758-1.922,7.1-6.1c.836-.669,1.671-1.421,2.507-2.173a6.5,6.5,0,0,0-2.591-1.755,6.042,6.042,0,0,0-5.348.5,6.139,6.139,0,0,0-3.092,5.85,5.888,5.888,0,0,0,.836,2.841,3,3,0,0,0,.585.836" transform="translate(-1.016 -23.554)"/><path class="d" d="M64.293,29.987h9.443V39.6H78.5a21.749,21.749,0,0,0,6.518-1.086,17.663,17.663,0,0,0,3.176-1.421,11.485,11.485,0,0,1-2.173-6.1c-.251-2.925.334-6.769,2.34-9.026l1-1.17,1.17.919c3.008,2.424,5.432,5.683,5.933,9.527a14.2,14.2,0,0,1,10.948,1l1.254.752L108,34.332c-2.674,5.181-8.273,6.853-13.705,6.518C86.1,61.158,68.388,70.769,46.827,70.769c-11.115,0-21.31-4.178-27.16-14.04l-.084-.167-.836-1.755a27.189,27.189,0,0,1-2.173-13.873l.167-1.421h8.023V29.987h9.443V20.543h18.8V11.1H64.293Z" transform="translate(-3.538 -11.1)"/><path class="e" d="M95.09,35.813c.669-4.931-3.008-8.775-5.348-10.613-2.591,3.009-3.008,11.031,1.086,14.374-2.34,2.006-7.1,3.928-12.118,3.928H18.374a25.222,25.222,0,0,0,2.507,14.04l.669,1.254c.418.752.919,1.421,1.421,2.173a65.044,65.044,0,0,0,6.853.167,35.588,35.588,0,0,0,10.028-1.421.714.714,0,0,1,.5,1.337c-.334.084-.669.251-1.086.334a30.986,30.986,0,0,1-6.936,1.086h-.5c-1.086.084-2.256.084-3.51.084-1.337,0-2.591,0-4.095-.084,5.014,5.683,12.87,9.026,22.731,9.026,20.892,0,38.609-9.276,46.381-30,5.6.585,10.948-.836,13.371-5.6-3.761-2.173-8.775-1.5-11.616-.084Z" transform="translate(-3.833 -13.417)"/><path class="f" d="M95.8,35.813c.669-4.931-3.009-8.775-5.348-10.613-2.591,3.009-3.008,11.031,1.086,14.374C89.2,41.58,84.439,43.5,79.424,43.5H22.6c-.251,7.939,2.674,13.956,7.939,17.55a35.588,35.588,0,0,0,10.028-1.421.714.714,0,1,1,.5,1.337c-.334.084-.669.251-1.086.334a32.262,32.262,0,0,1-7.1,1.17l-.084-.084c7.1,3.677,17.382,3.593,29.249-.919,13.2-5.1,25.572-14.792,34.18-25.823-.167.084-.251.167-.418.167Z" transform="translate(-4.546 -13.417)"/><path class="g" d="M18.5,54.6a22.793,22.793,0,0,0,2.424,7.772l.669,1.254c.418.752.919,1.421,1.421,2.173a65.044,65.044,0,0,0,6.853.167,35.588,35.588,0,0,0,10.028-1.421.714.714,0,0,1,.5,1.337c-.334.084-.669.251-1.086.334a32.263,32.263,0,0,1-7.1,1.17h-.334c-1.086.084-2.256.084-3.426.084-1.337,0-2.674,0-4.095-.084,5.014,5.683,12.953,9.026,22.814,9.026,17.884,0,33.428-6.769,42.453-21.728H18.5V54.6Z" transform="translate(-3.875 -18.247)"/><path class="h" d="M23.3,54.6a18.052,18.052,0,0,0,7.354,11.282,35.588,35.588,0,0,0,10.028-1.421.714.714,0,0,1,.5,1.337c-.334.084-.669.251-1.086.334A32.235,32.235,0,0,1,32.91,67.3c7.1,3.677,17.382,3.593,29.166-.919A78.467,78.467,0,0,0,82.3,54.6h-59Z" transform="translate(-4.664 -18.247)"/><path class="i" d="M28.2,33.66h8.19v8.19H28.2Zm.669.752h.669v6.769h-.669Zm1.254,0h.669v6.769h-.669Zm1.254,0h.669v6.769h-.669Zm1.17,0h.669v6.769h-.669Zm1.254,0h.669v6.769H33.8Zm1.254,0h.669v6.769h-.669ZM37.643,24.3h8.19v8.106h-8.19Zm.669.669h.669v6.769h-.669V24.969Zm1.254,0h.669v6.769h-.669V24.969Zm1.17,0H41.4v6.769h-.669V24.969Zm1.254,0h.669v6.769h-.669V24.969Zm1.254,0h.669v6.769h-.669V24.969Zm1.254,0h.669v6.769H44.5V24.969Z" transform="translate(-5.469 -13.269)"/><path class="j" d="M39.5,35.5h8.19v8.19H39.5Zm.669.752h.669v6.769h-.669Zm1.254,0h.669v6.769h-.669Zm1.17,0h.669v6.769h-.669Zm1.254,0h.669v6.769h-.669Zm1.254,0h.669v6.769H45.1Zm1.254,0h.669v6.769h-.669Z" transform="translate(-7.326 -15.109)"/><path class="i" d="M50.8,35.5h8.19v8.19H50.8Zm.669.752h.669v6.769h-.669Zm1.17,0h.669v6.769h-.669Zm1.254,0h.669v6.769h-.669Zm1.254,0h.669v6.769h-.669Zm1.254,0h.669v6.769H56.4Zm1.17,0h.669v6.769h-.669Z" transform="translate(-9.182 -15.109)"/><path class="j" d="M50.8,24.3h8.19v8.106H50.8Zm.669.669h.669v6.769h-.669V24.969Zm1.17,0h.669v6.769h-.669V24.969Zm1.254,0h.669v6.769h-.669V24.969Zm1.254,0h.669v6.769h-.669V24.969Zm1.254,0h.669v6.769H56.4V24.969Zm1.17,0h.669v6.769h-.669V24.969ZM60.16,33.66h8.19v8.19H60.16Zm.752.752h.669v6.769h-.669Zm1.17,0h.669v6.769h-.669Zm1.254,0H64v6.769h-.669Zm1.254,0h.669v6.769h-.669Zm1.17,0h.669v6.769h-.669Zm1.254,0h.669v6.769h-.669Z" transform="translate(-9.182 -13.269)"/><path class="i" d="M62,24.3h8.19v8.106H62Zm.752.669h.669v6.769h-.669V24.969Zm1.17,0h.669v6.769h-.669V24.969Zm1.254,0h.669v6.769h-.669V24.969Zm1.254,0H67.1v6.769h-.669V24.969Zm1.17,0h.669v6.769H67.6V24.969Zm1.254,0h.669v6.769h-.669V24.969Z" transform="translate(-11.023 -13.269)"/><path class="j" d="M62,13h8.19v8.19H62V13Zm.752.669h.669v6.853h-.669Zm1.17,0h.669v6.853h-.669Zm1.254,0h.669v6.853h-.669Zm1.254,0H67.1v6.853h-.669Zm1.17,0h.669v6.853H67.6Zm1.254,0h.669v6.853h-.669Z" transform="translate(-11.023 -11.412)"/><path class="i" d="M73.3,35.5h8.19v8.19H73.3Zm.669.752h.669v6.769h-.669Zm1.254,0h.669v6.769h-.669Zm1.254,0h.669v6.769h-.669Zm1.17,0h.669v6.769h-.669Zm1.254,0h.669v6.769H78.9Zm1.254,0h.669v6.769h-.669Z" transform="translate(-12.879 -15.109)"/><path class="k" d="M48.156,61.2A2.256,2.256,0,1,1,45.9,63.456,2.36,2.36,0,0,1,48.156,61.2" transform="translate(-8.377 -19.332)"/><path class="d" d="M40.779,60.01a1.422,1.422,0,0,1,.585.084.7.7,0,0,0-.334.585.719.719,0,0,0,.669.669.7.7,0,0,0,.585-.334,1.422,1.422,0,0,1,.084.585,1.588,1.588,0,0,1-3.176,0,1.644,1.644,0,0,1,1.588-1.588M1,54.746H105.713c-2.256-.585-7.187-1.337-6.435-4.346-4.178,4.763-14.123,3.343-16.714,1-2.841,4.095-19.221,2.507-20.307-.669-3.51,4.178-14.458,4.178-17.967,0-1.17,3.176-17.55,4.763-20.307.669-2.507,2.34-12.535,3.761-16.714-1C8.187,53.325,3.256,54.161,1,54.746" transform="translate(-1 -17.557)"/><path class="l" d="M50.772,78.6c-5.6-2.674-8.608-6.268-10.363-10.2a35.615,35.615,0,0,1-7.438,1.17c-1.086.084-2.256.084-3.426.084-1.421,0-2.841,0-4.346-.084,5.1,5.1,11.449,9.026,23.065,9.109.836-.084,1.671-.084,2.507-.084Z" transform="translate(-4.976 -20.515)"/><path class="m" d="M44.027,71.993A25.246,25.246,0,0,1,41.938,68.4,35.614,35.614,0,0,1,34.5,69.57,22.7,22.7,0,0,0,44.027,71.993Z" transform="translate(-6.504 -20.515)"/></g><g transform="translate(1252 876)"><path class="n" d="M24.5,50.5A2.526,2.526,0,0,0,22,53.2V67.3L6.1,51.3a3.133,3.133,0,0,0-3.2-.6A2.923,2.923,0,0,0,1,53.2V73.9a2.96,2.96,0,0,0,3,2.7,2.96,2.96,0,0,0,3-2.7V59.8l16.1,16a2.732,2.732,0,0,0,1.9.8,1.854,1.854,0,0,0,.7-.2A2.411,2.411,0,0,0,27,73.9V53.3a2.614,2.614,0,0,0-2.5-2.8ZM44.2,62.3a2.8,2.8,0,0,0,0,5.6l6.6.4L49.3,72H40.8l-4.2-7.9L40.9,56H50l2.1,4h5.5L54,52.1,53.2,51H37.6l-.7,1.2L31,62.5l-.7,1.3.7,1.3,5.8,10.3.8,1.6H52.7l.7-1.7,4.3-9L59.6,62H55.2l-11,.3ZM65,50.5a3.116,3.116,0,0,0-3,2.7V60h6V53.3A3.12,3.12,0,0,0,65,50.5Zm30.4.3a2.922,2.922,0,0,0-3.1.6L76,67.4V53.3a2.507,2.507,0,1,0-5,0V74a2.725,2.725,0,0,0,1.7,2.5,3.553,3.553,0,0,0,1,.2,3.227,3.227,0,0,0,2.1-.8L92,59.9V74a2.507,2.507,0,1,0,5,0V53.3a2.636,2.636,0,0,0-1.6-2.5Zm21.8,12.8,8.4-8.4a2.687,2.687,0,0,0-3.8-3.8l-8.4,8.4L105,51.4a2.687,2.687,0,1,0-3.8,3.8l8.4,8.4L101.2,72a2.6,2.6,0,0,0,0,3.8,2.656,2.656,0,0,0,3.8,0l8.4-8.4,8.4,8.4a2.656,2.656,0,0,0,3.8,0,2.6,2.6,0,0,0,0-3.8l-8.4-8.4ZM62,73.9a3.038,3.038,0,0,0,3,2.7,3.116,3.116,0,0,0,3-2.7V62H62Z" transform="translate(-1 -50.5)"/></g><path class="o" d="M2,38.5H107.155V75.567H54.578v6.182H31.206V75.567H2ZM7.843,69.394H19.529V50.856h5.843V69.394h5.843V44.682H7.843ZM37.049,44.682V75.567H48.735V69.394H60.421V44.682Zm11.686,6.182h5.843V63.212H48.735Zm17.529-6.182V69.394H77.949V50.856h5.843V69.394h5.843V50.856h5.843V69.394h5.843V44.682Z" transform="translate(1450 829.5)"/><g transform="translate(0 11.532)"><path class="p" d="M9.531,55.665H11.55a3.888,3.888,0,0,1,2,.393,1.367,1.367,0,0,1,.624,1.25,1.573,1.573,0,0,1-.273.954,1.092,1.092,0,0,1-.726.448v.044a1.43,1.43,0,0,1,.89.515,1.674,1.674,0,0,1,.273,1,1.652,1.652,0,0,1-.642,1.385,2.774,2.774,0,0,1-1.742.5H9.531V55.665Zm1.376,2.57h.8a1.464,1.464,0,0,0,.81-.173.645.645,0,0,0,.251-.573.573.573,0,0,0-.273-.535,1.752,1.752,0,0,0-.863-.162h-.724v1.442Zm0,1.092v1.691h.9a1.331,1.331,0,0,0,.839-.217.8.8,0,0,0,.271-.666q0-.807-1.154-.808ZM21.528,58.9a3.523,3.523,0,0,1-.8,2.477,2.961,2.961,0,0,1-2.29.866,2.961,2.961,0,0,1-2.29-.866,3.534,3.534,0,0,1-.8-2.486,3.486,3.486,0,0,1,.8-2.474,3,3,0,0,1,2.3-.855,2.956,2.956,0,0,1,2.288.861,3.534,3.534,0,0,1,.791,2.477Zm-4.735,0a2.707,2.707,0,0,0,.413,1.638,1.444,1.444,0,0,0,1.234.55q1.647,0,1.647-2.188t-1.638-2.192a1.453,1.453,0,0,0-1.238.553A2.7,2.7,0,0,0,16.792,58.9Zm11.97,0a3.523,3.523,0,0,1-.8,2.477,2.961,2.961,0,0,1-2.29.866,2.961,2.961,0,0,1-2.29-.866,3.534,3.534,0,0,1-.8-2.486,3.486,3.486,0,0,1,.8-2.474,3,3,0,0,1,2.3-.855,2.956,2.956,0,0,1,2.288.861,3.536,3.536,0,0,1,.791,2.477Zm-4.736,0a2.707,2.707,0,0,0,.413,1.638,1.444,1.444,0,0,0,1.234.55q1.647,0,1.647-2.188t-1.638-2.192a1.453,1.453,0,0,0-1.238.553A2.7,2.7,0,0,0,24.027,58.9Zm8.584,3.253H31.234V56.81H29.472V55.665h4.9V56.81H32.61Zm6.591-1.8a1.677,1.677,0,0,1-.632,1.385,2.748,2.748,0,0,1-1.76.506,4.135,4.135,0,0,1-1.837-.391V60.574a7.612,7.612,0,0,0,1.112.413,3.28,3.28,0,0,0,.832.12,1.185,1.185,0,0,0,.694-.173.591.591,0,0,0,.242-.515.571.571,0,0,0-.106-.34,1.188,1.188,0,0,0-.313-.286,8.019,8.019,0,0,0-.841-.439,3.97,3.97,0,0,1-.892-.537,2.018,2.018,0,0,1-.475-.6,1.711,1.711,0,0,1-.178-.8,1.677,1.677,0,0,1,.584-1.354,2.425,2.425,0,0,1,1.614-.493,3.8,3.8,0,0,1,.965.12,6.645,6.645,0,0,1,.961.337l-.444,1.07a6.533,6.533,0,0,0-.859-.3,2.762,2.762,0,0,0-.668-.084.885.885,0,0,0-.6.182.6.6,0,0,0-.209.475.587.587,0,0,0,.084.317.929.929,0,0,0,.268.262,8.339,8.339,0,0,0,.872.455,3.474,3.474,0,0,1,1.247.872,1.7,1.7,0,0,1,.337,1.071Zm3.68,1.8H41.5V56.81H39.743V55.665h4.9V56.81H42.881v5.344Zm4.136-2.49v2.49H45.641V55.665h1.891a3.237,3.237,0,0,1,1.957.481,1.921,1.921,0,0,1,.32,2.481,2.083,2.083,0,0,1-.892.7q1.465,2.188,1.909,2.827H49.3l-1.549-2.49h-.733Zm0-1.119h.444a1.7,1.7,0,0,0,.963-.217.777.777,0,0,0,.311-.684.711.711,0,0,0-.317-.657,1.927,1.927,0,0,0-.983-.2h-.417v1.753Zm8.6,3.609-.471-1.545H52.778l-.471,1.545H50.825l2.29-6.515H54.8l2.3,6.515Zm-.8-2.7q-.652-2.1-.735-2.374c-.055-.183-.094-.329-.117-.435q-.146.568-.839,2.809h1.691ZM62.4,57.689a1.982,1.982,0,0,1-.655,1.6,2.8,2.8,0,0,1-1.862.555h-.59v2.308H57.914V55.665h2.073a2.758,2.758,0,0,1,1.8.508,1.855,1.855,0,0,1,.614,1.516Zm-3.107,1.03h.453a1.506,1.506,0,0,0,.95-.251.878.878,0,0,0,.315-.73.9.9,0,0,0-.264-.715,1.238,1.238,0,0,0-.828-.231h-.626v1.927Zm-18.5-30.145a14.625,14.625,0,0,0-4.156-.368h-6.5V37.91h7A13.973,13.973,0,0,0,39.7,37.7a6.119,6.119,0,0,0,2.17-.813,4.171,4.171,0,0,0,1.434-1.6,4.985,4.985,0,0,0,.562-2.4,4.567,4.567,0,0,0-.814-2.713,4.21,4.21,0,0,0-2.258-1.6Zm-1-4.179a4.04,4.04,0,0,0,2.16-1.457,4.135,4.135,0,0,0,.727-2.5,4.608,4.608,0,0,0-.678-2.5,3.427,3.427,0,0,0-1.937-1.469,16.28,16.28,0,0,0-4.322-.393h-5.6v8.735H36.21a12.864,12.864,0,0,0,3.585-.414ZM61.683,8.855A6.855,6.855,0,0,0,54.828,2H17.1a6.855,6.855,0,0,0-6.855,6.855V46.584A6.855,6.855,0,0,0,17.1,53.439H54.828a6.855,6.855,0,0,0,6.855-6.855ZM46.916,36.586a7.184,7.184,0,0,1-2.083,2.645,8.791,8.791,0,0,1-3.111,1.5,18.451,18.451,0,0,1-4.583.573H26.258V12.676H36.966a13.172,13.172,0,0,1,5.222.875,6.735,6.735,0,0,1,3.082,2.661,7.015,7.015,0,0,1,1.114,3.754A6.454,6.454,0,0,1,45.4,23.4a7.055,7.055,0,0,1-2.984,2.6,7.422,7.422,0,0,1,3.963,2.578,6.905,6.905,0,0,1,1.385,4.3,8.3,8.3,0,0,1-.843,3.71Z" transform="translate(1249.469 403.618)"/><g transform="translate(1632 417.15)"><path class="q" d="M5.756,40.74v3.352A4.82,4.82,0,0,1,6.6,43.31a2.98,2.98,0,0,1,.909-.432,3.8,3.8,0,0,1,1.065-.142,3.137,3.137,0,0,1,1.49.365,2.823,2.823,0,0,1,1.4,1.952,7.13,7.13,0,0,1,.082,1.155v4.328a1.49,1.49,0,0,1-.313,1.028,1.05,1.05,0,0,1-.819.35q-1.117,0-1.117-1.371V46.722a3.494,3.494,0,0,0-.32-1.669,1.274,1.274,0,0,0-1.222-.581,1.833,1.833,0,0,0-1.088.343,2.071,2.071,0,0,0-.745.939,6.027,6.027,0,0,0-.179,1.8v2.98a1.49,1.49,0,0,1-.305,1.021,1.043,1.043,0,0,1-.819.358q-1.117,0-1.117-1.371v-9.8a1.55,1.55,0,0,1,.291-1.028,1.028,1.028,0,0,1,.827-.343,1.05,1.05,0,0,1,.842.35,1.49,1.49,0,0,1,.3,1.021Z" transform="translate(-3.494 -39.361)"/><path class="q" d="M22.891,51.8a6.98,6.98,0,0,1-1.587.954,4.47,4.47,0,0,1-1.713.32,3.248,3.248,0,0,1-1.49-.343,2.511,2.511,0,0,1-1.013-.931,2.414,2.414,0,0,1-.358-1.274,2.28,2.28,0,0,1,.589-1.579,2.935,2.935,0,0,1,1.609-.879l1.065-.223q.849-.171,1.49-.32t1.319-.35a2.362,2.362,0,0,0-.358-1.311,1.609,1.609,0,0,0-1.408-.387,2.749,2.749,0,0,0-1.3.238,2.116,2.116,0,0,0-.745.745q-.313.477-.44.633a.745.745,0,0,1-.551.156A.961.961,0,0,1,17.348,47a.8.8,0,0,1-.276-.626,1.915,1.915,0,0,1,.425-1.155,3.017,3.017,0,0,1,1.319-.924,5.96,5.96,0,0,1,2.235-.365,6.3,6.3,0,0,1,2.339.35,2.183,2.183,0,0,1,1.207,1.11,4.865,4.865,0,0,1,.35,2.019v2.578a4.544,4.544,0,0,0,.179,1.274,4.2,4.2,0,0,1,.209.916.834.834,0,0,1-.328.633,1.1,1.1,0,0,1-.745.283,1,1,0,0,1-.685-.328,4.813,4.813,0,0,1-.685-.968Zm-.149-3.263a11.4,11.4,0,0,1-1.445.387q-.946.2-1.311.3a1.788,1.788,0,0,0-.693.372.954.954,0,0,0-.328.745,1.147,1.147,0,0,0,.387.872,1.438,1.438,0,0,0,1.021.358,2.645,2.645,0,0,0,1.237-.291,1.959,1.959,0,0,0,.834-.745,3.457,3.457,0,0,0,.305-1.684Z" transform="translate(-6.869 -40.523)"/><path class="q" d="M32.85,45.124V45.4a3.956,3.956,0,0,1,1.3-1.155,3.472,3.472,0,0,1,1.624-.365,3.241,3.241,0,0,1,1.594.387,2.466,2.466,0,0,1,1.013,1.1,2.615,2.615,0,0,1,.291.894,9.208,9.208,0,0,1,.067,1.222v4.2a1.49,1.49,0,0,1-.313,1.028,1.117,1.117,0,0,1-1.624,0,1.49,1.49,0,0,1-.313-1.021v-3.77a3.762,3.762,0,0,0-.276-1.721,1.266,1.266,0,0,0-1.237-.589,1.833,1.833,0,0,0-1.065.365,2.071,2.071,0,0,0-.745.968,7.062,7.062,0,0,0-.164,1.885v2.831a1.49,1.49,0,0,1-.32,1.028,1.073,1.073,0,0,1-.819.343,1.021,1.021,0,0,1-.8-.358,1.49,1.49,0,0,1-.313-1.021v-6.5a1.423,1.423,0,0,1,.283-.961.976.976,0,0,1,.745-.32,1.043,1.043,0,0,1,.536.142,1.006,1.006,0,0,1,.387.425A1.49,1.49,0,0,1,32.85,45.124Z" transform="translate(-10.444 -40.512)"/><path class="q" d="M50.562,50.618V50.4a5.744,5.744,0,0,1-.894.849,3.375,3.375,0,0,1-.961.5,3.606,3.606,0,0,1-1.132.171,3.33,3.33,0,0,1-1.49-.343,3.5,3.5,0,0,1-1.192-.983,4.47,4.47,0,0,1-.745-1.49,6.384,6.384,0,0,1-.261-1.862,4.85,4.85,0,0,1,1.036-3.3,3.434,3.434,0,0,1,2.719-1.185,3.658,3.658,0,0,1,1.646.335,4.6,4.6,0,0,1,1.3,1.028V40.777a1.684,1.684,0,0,1,.276-1.05.946.946,0,0,1,.79-.358.976.976,0,0,1,.79.328,1.49,1.49,0,0,1,.276.961v9.96a1.386,1.386,0,0,1-.3.968,1,1,0,0,1-.745.32.983.983,0,0,1-.745-.335,1.378,1.378,0,0,1-.372-.954ZM46.092,47.3a3.844,3.844,0,0,0,.283,1.564,2.175,2.175,0,0,0,.745.968,1.929,1.929,0,0,0,1.08.328,2,2,0,0,0,1.088-.313,2.131,2.131,0,0,0,.782-.954,3.844,3.844,0,0,0,.365-1.609,3.725,3.725,0,0,0-.291-1.55,2.332,2.332,0,0,0-.8-.991,1.9,1.9,0,0,0-1.1-.343,1.848,1.848,0,0,0-1.11.35,2.235,2.235,0,0,0-.745,1.006,4.015,4.015,0,0,0-.276,1.527Z" transform="translate(-13.793 -39.361)"/><path class="q" d="M58.748,50.534v-9.8a1.49,1.49,0,0,1,.305-1.028,1.021,1.021,0,0,1,.812-.35,1.065,1.065,0,0,1,.827.343,1.49,1.49,0,0,1,.313,1.028v9.8a1.49,1.49,0,0,1-.32,1.028,1.073,1.073,0,0,1-.819.343,1.021,1.021,0,0,1-.8-.358A1.49,1.49,0,0,1,58.748,50.534Z" transform="translate(-17.584 -39.359)"/><path class="q" d="M71.075,49H66.657a2.98,2.98,0,0,0,.313,1.356,2.071,2.071,0,0,0,1.907,1.185,2.712,2.712,0,0,0,.745-.1,2.406,2.406,0,0,0,.648-.3,4.916,4.916,0,0,0,.581-.432q.268-.231.685-.626a.745.745,0,0,1,.5-.149.819.819,0,0,1,.559.194.678.678,0,0,1,.216.536,1.49,1.49,0,0,1-.238.745,2.838,2.838,0,0,1-.745.782,4.1,4.1,0,0,1-1.214.626,5.215,5.215,0,0,1-1.684.246A4.47,4.47,0,0,1,65.577,51.8a4.619,4.619,0,0,1-1.229-3.375,5.609,5.609,0,0,1,.3-1.855,4.1,4.1,0,0,1,.872-1.49,3.769,3.769,0,0,1,1.408-.939,5.043,5.043,0,0,1,1.855-.328,4.4,4.4,0,0,1,2.235.559,3.673,3.673,0,0,1,1.415,1.445,3.8,3.8,0,0,1,.5,1.862,1.128,1.128,0,0,1-.484,1.1A3.04,3.04,0,0,1,71.075,49Zm-4.418-1.281h4.1a2.741,2.741,0,0,0-.626-1.736,1.87,1.87,0,0,0-1.43-.544,1.81,1.81,0,0,0-1.386.581,2.905,2.905,0,0,0-.656,1.7Z" transform="translate(-19.012 -40.494)"/><path class="q" d="M80.222,40.661V44.11a5.215,5.215,0,0,1,1.3-1.013,3.464,3.464,0,0,1,1.639-.35,3.621,3.621,0,0,1,1.974.536,3.5,3.5,0,0,1,1.319,1.55,5.692,5.692,0,0,1,.469,2.4,6.429,6.429,0,0,1-.261,1.885,4.47,4.47,0,0,1-.745,1.49,3.419,3.419,0,0,1-1.207.968,3.524,3.524,0,0,1-1.557.343,3.725,3.725,0,0,1-.991-.156,2.853,2.853,0,0,1-.745-.328,3.5,3.5,0,0,1-.551-.417,8,8,0,0,1-.6-.648v.223a1.363,1.363,0,0,1-.305.961,1.021,1.021,0,0,1-.745.328.968.968,0,0,1-.745-.328,1.43,1.43,0,0,1-.283-.961V40.765a1.654,1.654,0,0,1,.276-1.036.931.931,0,0,1,.745-.35.991.991,0,0,1,.8.335A1.445,1.445,0,0,1,80.222,40.661Zm.1,6.7a3.107,3.107,0,0,0,.618,2.071,2.019,2.019,0,0,0,1.617.745,1.855,1.855,0,0,0,1.49-.745,3.233,3.233,0,0,0,.6-2.146,4.157,4.157,0,0,0-.253-1.49,2.235,2.235,0,0,0-.745-1,1.788,1.788,0,0,0-1.1-.35,1.959,1.959,0,0,0-1.147.35,2.339,2.339,0,0,0-.775,1,3.956,3.956,0,0,0-.291,1.572Z" transform="translate(-22.542 -39.364)"/><path class="q" d="M97.891,51.782a6.98,6.98,0,0,1-1.587.954,4.47,4.47,0,0,1-1.713.32,3.248,3.248,0,0,1-1.49-.343,2.511,2.511,0,0,1-1.013-.931,2.414,2.414,0,0,1-.358-1.274,2.28,2.28,0,0,1,.589-1.579,2.935,2.935,0,0,1,1.609-.879l1.065-.223q.849-.171,1.49-.32t1.319-.35a2.362,2.362,0,0,0-.358-1.311,1.609,1.609,0,0,0-1.386-.387,2.749,2.749,0,0,0-1.3.238,2.116,2.116,0,0,0-.745.745q-.313.477-.44.633a.745.745,0,0,1-.551.156.961.961,0,0,1-.648-.283.8.8,0,0,1-.276-.626,1.915,1.915,0,0,1,.425-1.155,3.017,3.017,0,0,1,1.319-.924,5.96,5.96,0,0,1,2.235-.365,6.3,6.3,0,0,1,2.339.35,2.183,2.183,0,0,1,1.207,1.11,4.865,4.865,0,0,1,.35,2.019v2.578a4.544,4.544,0,0,0,.209,1.326,4.2,4.2,0,0,1,.209.887.834.834,0,0,1-.328.633,1.1,1.1,0,0,1-.745.283,1,1,0,0,1-.685-.328,4.813,4.813,0,0,1-.745-.954Zm-.149-3.263a11.4,11.4,0,0,1-1.445.387q-.946.2-1.311.3a1.788,1.788,0,0,0-.693.372.954.954,0,0,0-.328.745,1.147,1.147,0,0,0,.387.872,1.438,1.438,0,0,0,1.021.358,2.645,2.645,0,0,0,1.237-.291,1.959,1.959,0,0,0,.834-.745,3.457,3.457,0,0,0,.305-1.684Z" transform="translate(-25.996 -40.51)"/><path class="q" d="M108.076,49.811V51.7a1.49,1.49,0,0,1-.32,1.028,1.073,1.073,0,0,1-.819.343,1.035,1.035,0,0,1-.8-.35,1.49,1.49,0,0,1-.313-1.028v-6.28q0-1.49,1.1-1.49a.916.916,0,0,1,.812.358,1.952,1.952,0,0,1,.276,1.05,3.956,3.956,0,0,1,.834-1.05,1.713,1.713,0,0,1,1.14-.358,2.905,2.905,0,0,1,1.378.358,1.065,1.065,0,0,1,.67.946.943.943,0,0,1-.9.954,2.838,2.838,0,0,1-.6-.156,2.786,2.786,0,0,0-.842-.156,1.229,1.229,0,0,0-.812.261,1.669,1.669,0,0,0-.492.745,5.379,5.379,0,0,0-.238,1.222A16.673,16.673,0,0,0,108.076,49.811Z" transform="translate(-29.588 -40.521)"/><path class="q" d="M122.35,50.107a2.615,2.615,0,0,1-1.8,2.607,6.019,6.019,0,0,1-2.16.343,5.274,5.274,0,0,1-2.086-.372,3.032,3.032,0,0,1-1.281-.931,1.877,1.877,0,0,1-.41-1.117.872.872,0,0,1,.261-.633.909.909,0,0,1,.67-.261.745.745,0,0,1,.544.171,1.915,1.915,0,0,1,.365.492,2.473,2.473,0,0,0,.834.9,2.511,2.511,0,0,0,1.319.3,1.907,1.907,0,0,0,1.11-.305.849.849,0,0,0,.432-.693.939.939,0,0,0-.454-.872,5.58,5.58,0,0,0-1.49-.521,12.262,12.262,0,0,1-1.9-.611,3.114,3.114,0,0,1-1.17-.842,1.922,1.922,0,0,1-.44-1.281,2.235,2.235,0,0,1,.4-1.281,2.779,2.779,0,0,1,1.192-.961,4.574,4.574,0,0,1,1.907-.358,6.265,6.265,0,0,1,1.572.179,3.926,3.926,0,0,1,1.17.492,2.414,2.414,0,0,1,.745.678,1.326,1.326,0,0,1,.246.745.842.842,0,0,1-.261.633,1.028,1.028,0,0,1-.745.246.909.909,0,0,1-.589-.2,3.9,3.9,0,0,1-.559-.6,2.049,2.049,0,0,0-.6-.529,1.9,1.9,0,0,0-.946-.2,1.848,1.848,0,0,0-1.021.261.745.745,0,0,0-.4.648.7.7,0,0,0,.3.581,2.466,2.466,0,0,0,.8.372q.507.149,1.386.365a7.45,7.45,0,0,1,1.713.611,2.853,2.853,0,0,1,1.006.842,1.862,1.862,0,0,1,.343,1.1Z" transform="translate(-31.831 -40.511)"/><g transform="translate(13.851 23.367)"><path class="q" d="M28.69,77.866a3.613,3.613,0,0,0,1.17-1.766,2.086,2.086,0,0,0-1.17-2.682c-3.427-1.736-5.639,1.356-5.96,2.078a7.074,7.074,0,0,0-.529,4.47c.358,2.607,1.617,5.014,5.55,5.96a16.665,16.665,0,0,0,11.175-1.3c3.472-1.654,9.983-4.559,11.629-4.85a14.259,14.259,0,0,1,3.285-.41V75.4a9.1,9.1,0,0,0-8.806-4.634c-6.28.492-8.776,3.725-10.3,5.111s-4.366,4.649-6.265,4.075-2.436-2.92-1.766-3.643,1.2-.6,1.617,0a3.159,3.159,0,0,1,.372,1.557Z" transform="translate(-22.086 -70.726)"/><path class="q" d="M89.56,77.866a3.613,3.613,0,0,1-1.17-1.766,2.086,2.086,0,0,1,1.17-2.682c3.427-1.736,5.639,1.356,5.96,2.078a7.074,7.074,0,0,1,.529,4.47c-.358,2.607-1.617,5.014-5.55,5.96a16.665,16.665,0,0,1-11.175-1.3c-3.472-1.654-9.983-4.559-11.629-4.85a14.258,14.258,0,0,0-3.285-.41V75.4a9.1,9.1,0,0,1,8.806-4.634c6.28.492,8.776,3.725,10.3,5.111s4.366,4.649,6.265,4.075,2.436-2.92,1.766-3.643-1.2-.6-1.617,0A3.158,3.158,0,0,0,89.56,77.866Z" transform="translate(-32.88 -70.726)"/></g></g><g transform="translate(1376 402.474)"><path class="r" d="M25.362,11.885c-4.012,5.765-3.512,13.266-.447,19.393l.224.435.144.276.089.159.16.286c.095.168.193.334.292.5l.167.275q.166.267.339.531l.145.223c.16.238.323.476.492.71l.014.018.083.112c.146.2.3.4.448.6l.169.214c.136.171.274.34.414.51l.158.189c.188.222.381.443.577.659l.011.012.022.025c.192.209.387.414.587.618l.188.189c.154.155.31.307.468.459l.192.182c.211.2.424.394.642.584l.01.009.112.095q.287.25.583.492l.241.193c.16.128.322.255.486.38l.26.2q.27.2.545.391l.2.141.055.039c.174.12.352.235.529.35l.229.153c.273.172.549.343.829.507l.229.129c.206.118.413.235.622.349l.344.178.445.231.1.05.182.088c.233.111.468.221.706.327l.149.067q.408.178.823.343l.2.079c.256.1.516.2.776.288l.1.034c.286.1.575.193.866.284l.209.062a8.454,8.454,0,0,0,.894.252C61.063,48.286,66.7,33.091,66.7,33.091c-4.733,6.166-13.134,7.792-21.093,5.982-.3-.068-.594-.163-.888-.249l-.222-.068q-.431-.132-.856-.278l-.117-.042c-.254-.089-.5-.183-.754-.28l-.212-.083c-.273-.108-.546-.221-.814-.338l-.163-.073c-.231-.1-.459-.21-.687-.319l-.2-.1c-.178-.087-.355-.179-.531-.27l-.354-.186c-.216-.115-.427-.235-.637-.357l-.215-.12q-.42-.248-.829-.509l-.224-.149c-.2-.128-.4-.258-.59-.392l-.19-.134c-.188-.132-.374-.267-.558-.4l-.247-.187c-.169-.129-.337-.26-.5-.393l-.224-.18q-.318-.26-.627-.529l-.069-.057c-.223-.2-.443-.4-.659-.6l-.186-.179c-.16-.152-.319-.306-.474-.464l-.186-.186q-.3-.3-.581-.614l-.029-.031c-.2-.219-.4-.444-.589-.671l-.154-.183c-.144-.172-.285-.348-.424-.524l-.156-.194c-.168-.217-.33-.433-.49-.652-4.419-6.028-6.007-14.342-2.475-21.169m9.32-.887c-2.9,4.174-2.744,9.764-.48,14.178a18.414,18.414,0,0,0,1.283,2.142,10.144,10.144,0,0,0,1.493,1.865c.209.23.428.455.651.676l.171.17c.217.21.437.417.665.618l.027.023.007.007c.252.221.512.433.776.643l.176.138c.265.2.535.4.812.593l.023.018.371.244.176.116c.2.127.4.25.6.369l.085.05c.176.1.354.2.532.3l.189.1.372.193.056.026c.256.126.513.247.777.362l.171.071c.211.089.423.176.637.258l.273.1c.194.072.389.138.585.2l.264.085a6.564,6.564,0,0,0,.845.244c14.979,2.481,18.436-9.051,18.436-9.051-3.117,4.49-9.154,6.631-15.6,4.96q-.429-.113-.849-.245l-.255-.082c-.2-.064-.4-.133-.593-.2l-.268-.1q-.322-.124-.639-.258l-.172-.073q-.4-.173-.781-.363l-.392-.2-.226-.116c-.167-.091-.333-.184-.5-.28l-.118-.067c-.2-.118-.4-.24-.6-.367l-.181-.121-.389-.258c-.276-.19-.545-.39-.81-.592l-.182-.144a18.058,18.058,0,0,1-6.117-8.718A13.529,13.529,0,0,1,40.186,3.681m8.1-.283a8.729,8.729,0,0,0-.691,8.422A11.86,11.86,0,0,0,54.4,18.183l.372.128.164.052a4.547,4.547,0,0,0,.534.154c8.271,1.6,10.514-4.244,11.111-5.1-1.965,2.829-5.267,3.509-9.319,2.525-.32-.077-.672-.193-.98-.3a12.17,12.17,0,0,1-1.164-.483,12.108,12.108,0,0,1-2.041-1.245c-3.626-2.751-5.878-8-3.512-12.273" transform="translate(-13.639 -1.634)"/><path class="q" d="M39.06,93.923H36.754a.3.3,0,0,0-.282.228l-.818,3.787-.819,3.787a.3.3,0,0,1-.282.228H32.921c-1.615,0-1.428-1.117-1.1-2.647l.01-.046.036-.193.007-.036.074-.393.079-.421.084-.428.372-1.818.373-1.818a.183.183,0,0,0-.186-.229H30.305a.3.3,0,0,0-.28.228l-.509,2.414-.509,2.415v0l-.047.225c-.586,2.675-.431,5.227,2.755,5.308l.093,0h5a.3.3,0,0,0,.282-.228l1.078-5.069,1.078-5.069A.181.181,0,0,0,39.06,93.923ZM14.365,93.9H11.834a.306.306,0,0,0-.284.227l-.24,1.06-.24,1.06a.178.178,0,0,0,.182.227H13.8a.3.3,0,0,0,.283-.228l.232-1.059.232-1.059A.18.18,0,0,0,14.365,93.9Zm-.734,3.3H11.079a.307.307,0,0,0-.284.227l-.359,1.588-.358,1.587-.1.455-.344,1.621-.344,1.621c-.027.125-.082.327-.123.448,0,0-.477,1.419-1.278,1.4l-.1,0-.694-.013h0a.3.3,0,0,0-.286.222l-.265,1.113-.264,1.112a.178.178,0,0,0,.178.229c.455.005,1.473.017,2.089.017,2,0,3.058-1.109,3.734-4.3l.792-3.664.743-3.436A.18.18,0,0,0,13.631,97.195Zm46.991-.859-.106-.437-.1-.447-.053-.226c-.207-.806-.816-1.27-2.137-1.27l-2.057,0-1.895,0H52.138a.3.3,0,0,0-.281.228l-.094.445-.111.526-.031.148-.96,4.5-.911,4.268a1,1,0,0,0-.021.342c.015.063.261.114.389.114H52.04a1.206,1.206,0,0,0,.36-.051c.07-.028.173-.28.2-.4l.342-1.691.342-1.692v0l.046-.225.415-1.943.366-1.716a.3.3,0,0,1,.281-.228l6.051,0A.176.176,0,0,0,60.622,96.336Zm7.789-3.951-.466,0H66.009a.493.493,0,0,0-.364.193l-4.283,6.274c-.072.106-.154.091-.183-.034l-.315-1.382a.306.306,0,0,0-.285-.227H57.826a.166.166,0,0,0-.169.223l1.234,4.322a1.025,1.025,0,0,1,.006.45l-.537,2.092a.172.172,0,0,0,.175.225h2.721a.317.317,0,0,0,.29-.225l.538-2.092a1.375,1.375,0,0,1,.2-.412l6.953-9.228c.077-.1.035-.186-.092-.185ZM46.538,97.8v0a.28.28,0,0,1-.272.241H42.775a.15.15,0,0,1-.164-.183l0-.008h0l0-.011.016-.059a2.187,2.187,0,0,1,2.289-1.468c1.437,0,1.718.7,1.62,1.491Zm-1.024-4.029c-4.48,0-5.542,2.72-6.138,5.465-.6,2.8-.545,5.414,4.092,5.414H44.2l.557,0h.01c1.224,0,2.453-.014,2.95-.018A.3.3,0,0,0,48,104.4l.188-.917.037-.178.224-1.095a.183.183,0,0,0-.186-.228H44.09c-1.658,0-2.15-.44-1.969-1.736h6.667a.275.275,0,0,0,.243-.172l.016-.058h0c.989-3.732.706-6.245-3.533-6.246ZM24.336,97.783l-.063.223h0l-.5,1.783-.5,1.783a.325.325,0,0,1-.3.224H20.308c-2.02,0-2.512-1.58-2.02-3.91.492-2.383,1.456-3.865,3.444-4.015,2.717-.205,3.261,1.706,2.6,3.911Zm1.827,3.877a29.862,29.862,0,0,0,1.54-4.809c.389-2.357-.791-5.776-5.35-5.776-4.532,0-6.5,3.264-7.252,6.812-.751,3.574.233,6.708,4.74,6.682l3.556-.013,3.323-.012a.322.322,0,0,0,.291-.226l.579-2.208a.173.173,0,0,0-.174-.227l-.555,0-.555,0a.142.142,0,0,1-.158-.165ZM48.6,99.619a.153.153,0,1,1-.153-.152A.153.153,0,0,1,48.6,99.619Z" transform="translate(-6.274 -42.27)"/></g><g transform="translate(1504 403.514)"><path class="s" d="M0,0H64V64H0Z"/><path class="t" d="M44.346,45.675A31.293,31.293,0,0,1,21.541,63.1a19.865,19.865,0,0,1-4.885.57c-6,0-11.5-2.5-14.17-6.595C-1.1,51.62-2.319,40.055,9.5,31.5c.24,1.3.73,3.095,1.055,4.155A19.12,19.12,0,0,0,5,42.17,11.965,11.965,0,0,0,5.651,54.8a11.4,11.4,0,0,0,8.315,4.825,22,22,0,0,0,13.275-2.5c6.355-3.34,10.59-7.33,13.36-12.785a4.66,4.66,0,0,1-1.3-3,4.56,4.56,0,0,1,4.39-4.715h.17a4.575,4.575,0,0,1,.5,9.125Zm14.335-10.1c6.105,6.92,6.27,15.065,3.91,19.79-2.2,4.315-8,8.635-15.8,8.635a25.24,25.24,0,0,1-10.5-2.525c1.145-.815,2.77-2.12,3.665-2.935a20.77,20.77,0,0,0,8,1.71,11.951,11.951,0,0,0,11.155-6.675,11.289,11.289,0,0,0,.165-9.61A21.8,21.8,0,0,0,50.641,33.54a31,31,0,0,0-17.37-5.3H31.806a4.6,4.6,0,0,1-4,2.77h-.155a4.565,4.565,0,0,1-.15-9.125h.165a4.5,4.5,0,0,1,4,2.445h1.305C43.371,24.335,52.5,28.325,58.681,35.575Zm-41.375,11.5a3.655,3.655,0,0,1,.57-2.365c-4.56-7.9-7-17.915-3.255-28.34C17.306,8.535,24.066,3.24,31.4,3.24c7.82,0,15.965,6.845,16.94,20.035-1.22-.405-3-1-4.07-1.22C44,17.74,40.356,6.99,31.721,7.15c-3.095.085-7.655,1.55-10,4.56A21.845,21.845,0,0,0,16.9,24.335a29.8,29.8,0,0,0,4.235,18.08,1.375,1.375,0,0,1,.57-.08h.16a4.561,4.561,0,1,1,.165,9.12h-.165a4.58,4.58,0,0,1-4.56-4.4Z" transform="translate(-0.001 -1.62)"/></g><path class="u" d="M1.219,44.606a3.9,3.9,0,0,0,.228,1.141,14.019,14.019,0,0,0,3.038,5.461,36.005,36.005,0,0,0,6.736,5.91c2.107,1.514,4.256,2.995,6.371,4.5.363.258.706.555,1.1.871-.339.183-.621.345-.914.494a48.943,48.943,0,0,0-7.952,4.925,16.264,16.264,0,0,0-3.953,4,8.6,8.6,0,0,0-1,8.292,4.895,4.895,0,0,0,1.669,2.152,2.467,2.467,0,0,0,.819.423c.746.176,1.506.29,2.261.429h2.138a13.3,13.3,0,0,0,6.462-2.363,14.181,14.181,0,0,0,5.969-8.522,15.042,15.042,0,0,0-.088-7.863c-.07-.243-.158-.48-.25-.715s-.2-.463-.326-.756L28.378,60.2l.073.062c-.088.288-.182.576-.262.867a19.633,19.633,0,0,0-.821,6.428A12.335,12.335,0,0,0,29.525,74a3.127,3.127,0,0,0,4.9.053,11.29,11.29,0,0,0,1.12-1.772c.79-1.632,1.522-3.293,2.277-4.943l.132-.3c-.054.781-.118,1.467-.147,2.154a8.209,8.209,0,0,0,.384,3.159,2.181,2.181,0,0,0,1.847,1.64,2.322,2.322,0,0,0,1.732-.632,7.321,7.321,0,0,0,1.9-2.255C45,68.642,46.381,66.2,47.6,63.672c1.314-2.729,2.463-5.538,3.684-8.314l.2-.492c.288,1.133.489,2.243.859,3.293a31.124,31.124,0,0,0,1.542,3.566,1.067,1.067,0,0,1-.137,1.359c-1.591,1.918-3.154,3.859-4.718,5.8a13.025,13.025,0,0,0-.979,1.331,2.609,2.609,0,0,0-.338.962,1.225,1.225,0,0,0,.975,1.39,6.811,6.811,0,0,0,1.909.136,11.183,11.183,0,0,0,5.919-2.226,6.2,6.2,0,0,0,2.45-6.7,15.562,15.562,0,0,0-.668-2.167.8.8,0,0,1,.087-.845,68.987,68.987,0,0,0,4.809-8.157,1.681,1.681,0,0,1,.216-.34,21.18,21.18,0,0,0,2.432,6.9c-.643.62-1.28,1.182-1.856,1.8a12.413,12.413,0,0,0-2.942,4.65,5.493,5.493,0,0,0-.326,2.4,2.023,2.023,0,0,0,2.5,1.836,11.352,11.352,0,0,0,6.777-4.177,5.492,5.492,0,0,0,.776-5.015c-.133-.485-.29-.962-.459-1.519.67-.208,1.324-.458,2-.612a17.728,17.728,0,0,1,10.365.606,7.823,7.823,0,0,1,4.516,3.928,4.531,4.531,0,0,1-1.729,6.149,3.851,3.851,0,0,0-.623.427.612.612,0,0,0-.145.472c.015.087.244.2.376.194a3.437,3.437,0,0,0,1.911-.79,5.887,5.887,0,0,0,2.716-4.1l.044-.133-.054-1.149c-.022-.066.016-.132.011-.182a9.012,9.012,0,0,0-3.675-6.125A13.406,13.406,0,0,0,78.09,55.16,17.909,17.909,0,0,0,71.2,56.22c-.632.229-1.259.5-1.9.757-.085-.154-.177-.3-.252-.455a12.885,12.885,0,0,1-1.619-4.147,9.284,9.284,0,0,1-.018-3.252c.249-1.036.573-2.054.878-3.075a.749.749,0,0,0-.455-1.058,2.012,2.012,0,0,0-.554-.182,8.535,8.535,0,0,0-3.646.271,1.044,1.044,0,0,0-.824.828c-.054.269-.163.526-.239.791a19.785,19.785,0,0,1-1.039,3.275c-1.265,2.633-2.709,5.167-4.186,7.683-.16.271-.329.538-.53.867a11.365,11.365,0,0,1-1.24-3.2,9.828,9.828,0,0,1-.018-3.863c.239-.956.551-1.894.839-2.838a.657.657,0,0,0-.333-.92,1.957,1.957,0,0,0-.668-.259,8.209,8.209,0,0,0-3.775.309,1.02,1.02,0,0,0-.7.766,29.556,29.556,0,0,1-1.12,3.465c-1.956,4.484-3.968,8.945-5.978,13.4-.419.931-.911,1.83-1.384,2.737a6.355,6.355,0,0,1-.444.648.529.529,0,0,1-.166-.336,9.283,9.283,0,0,1,.044-1.717c.331-1.677.711-3.344,1.113-5.005.331-1.372.717-2.731,1.084-4.094a1.285,1.285,0,0,0-.2-1.266,1.893,1.893,0,0,0-2.384-.288l-.3.171.059-.486a7.579,7.579,0,0,0-.114-3.109,2.474,2.474,0,0,0-2.6-1.976,5.582,5.582,0,0,0-1.842.35,13.932,13.932,0,0,0-5.842,4.631,1.827,1.827,0,0,1-.534.461c-2.04,1.131-4.086,2.248-6.131,3.369l-2.277,1.247c-.611-.582-1.165-1.187-1.8-1.7-1.923-1.568-3.876-3.1-5.812-4.648a22.909,22.909,0,0,1-4.65-4.625A8.279,8.279,0,0,1,8.04,45.238a10.582,10.582,0,0,1,1.617-5.9,22.616,22.616,0,0,1,5.366-5.871,49.712,49.712,0,0,1,7.056-4.681A53.225,53.225,0,0,1,32.9,24.015a29.909,29.909,0,0,1,11.961-1.36,12.29,12.29,0,0,1,4.6,1.336,4.747,4.747,0,0,1,2.417,2.62,6.551,6.551,0,0,1,.114,3.669,14.006,14.006,0,0,1-3.663,6.381A24.752,24.752,0,0,1,38.212,43.07a27.833,27.833,0,0,1-6.885,1.469,12.965,12.965,0,0,1-5.63-.678,7.323,7.323,0,0,1-3.1-2.106c-.151-.176-.344-.367-.625-.2a.534.534,0,0,0-.232.69,6.761,6.761,0,0,0,.537,1.3,7.381,7.381,0,0,0,2.456,2.325,12.014,12.014,0,0,0,6.106,1.676,30.715,30.715,0,0,0,9.627-1.227,23.617,23.617,0,0,0,11.551-6.969,17.743,17.743,0,0,0,4.879-10.166,9.84,9.84,0,0,0-.919-5.6,10.124,10.124,0,0,0-4.417-4.318A18.7,18.7,0,0,0,42.863,17H39.825a31.454,31.454,0,0,0-10.676,2.308,73.34,73.34,0,0,0-7.662,3.316,49.538,49.538,0,0,0-14.6,10.458,21.811,21.811,0,0,0-4.817,7.607c-.294.85-.573,1.762-.783,2.641m19.627,25.39a11.206,11.206,0,0,1-3.988,7.757,9.073,9.073,0,0,1-4.562,2.277,3.349,3.349,0,0,1-1.9-.133,1.938,1.938,0,0,1-1.091-1.984,7.177,7.177,0,0,1,1.072-3.656,13.07,13.07,0,0,1,3.343-3.67,51.225,51.225,0,0,1,6.534-4.4l.171-.071a11.468,11.468,0,0,1,.421,3.883ZM38.645,55.058a23.72,23.72,0,0,1-.666,2.982,87.9,87.9,0,0,1-3.724,9.851,16.994,16.994,0,0,1-.968,1.7,1.19,1.19,0,0,1-.2.235c-.408.4-.794.381-1-.145a11.1,11.1,0,0,1-.514-1.915,10.147,10.147,0,0,1-.092-1.337A16.763,16.763,0,0,1,34.116,57.7a8.161,8.161,0,0,1,2.537-2.858,4.42,4.42,0,0,1,1.125-.5c.6-.169.967.109.868.709Zm12.1,15.418L55.1,65.4C55.277,67.283,52.071,71.048,50.746,70.475Zm13.891-3.417c-.307.176-.642.3-.957.466-.288.149-.384,0-.392-.25a1.682,1.682,0,0,1,.066-.508,10.933,10.933,0,0,1,3.276-5.278l.113-.058a4.659,4.659,0,0,1-2.105,5.628Z" transform="translate(1104.781 385.468)"/></g><g transform="translate(1238 283)"><path class="v" d="M13.765,57.493,8.76,1.352h55L58.75,57.484,36.227,63.728,13.765,57.493Z" transform="translate(-8.76 -1.352)"/><path class="w" d="M64,63.792l17.8-5.066,4.188-48.154H64Z" transform="translate(-35.895 -6.083)"/><path class="c" d="M64,37.064h8.911l.615-6.9H64V23.435H80.887l-.162,1.807L79.07,43.8H64V37.064Z" transform="translate(-36.223 -12.32)"/><path class="x" d="M48.519,79.564l-.03.009-7.5-2.025-.48-5.371H33.752L34.7,82.75l13.793,3.828.031-.009V79.564Z" transform="translate(-21.207 -36.678)"/><path class="c" d="M72.357,64.675l-.811,9.018-7.51,2.027v7.006L77.84,78.9l.1-1.138,1.171-13.087Z" transform="translate(-36.282 -32.859)"/><path class="x" d="M46.27,23.435v6.734H30l-.135-1.513-.307-3.414L29.4,23.435Zm-.023,13.63V43.8h-7.4l-.135-1.513L38.4,38.872l-.161-1.807Z" transform="translate(-19.022 -12.32)"/></g><g transform="translate(1110 283)"><path class="y" d="M14.037,57.8,9.032,1.661h55L59.021,57.793,36.5,64.036Z" transform="translate(-9.032 -1.661)"/><path class="z" d="M64,63.709l18.472-5.033,4.346-47.84H64Z" transform="translate(-36.912 -6.177)"/><path class="x" d="M47.013,38.41H37.765l-.639-6.988h9.887V24.6H29.489l.168,1.83,1.717,18.8H47.013Zm0,17.721-.031.008L39.2,54.087l-.5-5.441H31.686l.979,10.714,14.316,3.88.032-.008Z" transform="translate(-19.325 -12.952)"/><path class="c" d="M63.952,38.41v6.824h8.605l-.811,8.849-7.794,2.054v7.1l14.327-3.877.105-1.153,1.642-17.964.17-1.832H63.952Zm0-13.811v6.823H80.833l.14-1.533.319-3.46.167-1.83Z" transform="translate(-36.664 -12.952)"/></g><g transform="translate(1366 282)"><path class="aa" d="M1.408,1.408h63v63h-63Z" transform="translate(-1.408 -1.408)"/><path class="ab" d="M75.6,77.593c-.461-2.874-2.336-5.288-7.887-7.539-1.928-.886-4.078-1.521-4.719-2.982a3.252,3.252,0,0,1-.114-1.844c.413-1.671,2.408-2.192,3.988-1.713a4.388,4.388,0,0,1,2.563,2.377c2.719-1.76,2.713-1.749,4.611-2.959A11.788,11.788,0,0,0,72.518,60.9c-1.635-1.826-3.863-2.767-7.426-2.695l-1.856.24a8.422,8.422,0,0,0-4.467,2.635,8.248,8.248,0,0,0,1.5,11.743c3.575,2.683,8.827,3.294,9.5,5.8.653,3.072-2.258,4.066-5.15,3.713-2.132-.443-3.317-1.527-4.6-3.5C57.654,80.2,57.654,80.2,55.229,81.6a10.648,10.648,0,0,0,2.144,2.916c4.564,4.629,15.983,4.4,18.032-2.6a8.665,8.665,0,0,0,.191-4.318ZM52,58.573H46.108l-.024,15.235c0,3.24.168,6.21-.359,7.121-.862,1.791-3.1,1.569-4.114,1.221a5.056,5.056,0,0,1-2.174-2.257,2.968,2.968,0,0,0-.336-.539L34.31,82.287a9.467,9.467,0,0,0,3.473,3.976A11.437,11.437,0,0,0,46.2,87.3a7.436,7.436,0,0,0,4.755-3.725C52.3,81.1,52.012,78.108,52,74.8,52.03,69.394,52,63.993,52,58.573Z" transform="translate(-17.752 -29.618)"/></g><g transform="translate(1501 283)"><circle class="ac" cx="6.187" cy="6.187" r="6.187" transform="translate(27.785 24.149)"/><path class="ac" d="M58.87,28.234c-1.194-.434-2.442-.868-3.745-1.248.326-1.3.6-2.6.814-3.853,1.14-7.163-.109-12.21-3.582-14.164A6.741,6.741,0,0,0,48.885,8.1c-3.8,0-8.629,2.822-13.513,7.543C30.488,10.922,25.658,8.1,21.859,8.1a6.741,6.741,0,0,0-3.473.868c-3.473,2.008-4.721,7.055-3.582,14.164.217,1.248.488,2.551.814,3.853a37.845,37.845,0,0,0-3.745,1.248C5.09,30.838,1.4,34.42,1.4,38.436s3.745,7.6,10.474,10.2c1.194.434,2.442.868,3.745,1.248-.326,1.3-.6,2.6-.814,3.853-1.14,7.163.109,12.21,3.582,14.164a6.741,6.741,0,0,0,3.473.868c3.853,0,8.683-2.822,13.513-7.543,4.884,4.721,9.714,7.543,13.513,7.543a6.741,6.741,0,0,0,3.473-.868c3.473-2.008,4.721-7.055,3.582-14.164-.217-1.248-.488-2.551-.814-3.853a37.844,37.844,0,0,0,3.745-1.248c6.784-2.6,10.474-6.187,10.474-10.2S65.654,30.838,58.87,28.234ZM50.838,11.682C53.063,12.984,53.823,17,52.9,22.7a32.681,32.681,0,0,1-.76,3.582,64.473,64.473,0,0,0-8.954-1.357,78.3,78.3,0,0,0-5.644-7.055c4.016-3.962,8.086-6.675,11.4-6.675a3.666,3.666,0,0,1,1.9.488ZM44.76,43.863c-.977,1.737-2.116,3.473-3.31,5.21-2.008.163-4.016.217-6.078.217-2.116,0-4.124-.054-6.078-.217q-1.791-2.6-3.256-5.21c-1.031-1.791-2.008-3.636-2.876-5.427.868-1.791,1.845-3.636,2.876-5.427.977-1.737,2.116-3.473,3.31-5.21,2.008-.163,4.016-.217,6.078-.217,2.116,0,4.124.054,6.078.217q1.791,2.6,3.256,5.21c1.031,1.791,2.008,3.636,2.876,5.427C46.714,40.227,45.792,42.018,44.76,43.863Zm4.5-1.791c.814,1.9,1.465,3.745,2.062,5.59-1.845.434-3.8.76-5.861,1.031.651-1.031,1.357-2.116,1.954-3.256.651-1.14,1.248-2.279,1.845-3.365ZM35.372,56.779c-1.3-1.411-2.551-2.93-3.745-4.5,1.248.054,2.5.109,3.745.109s2.5-.054,3.745-.109C37.923,53.848,36.674,55.368,35.372,56.779Zm-10.094-8.14c-2.062-.271-4.016-.6-5.861-1.031.6-1.791,1.248-3.69,2.062-5.59.6,1.085,1.194,2.225,1.845,3.31.651,1.194,1.3,2.225,1.954,3.31ZM21.479,34.8c-.814-1.9-1.465-3.745-2.062-5.59,1.845-.434,3.8-.76,5.861-1.031-.651,1.031-1.357,2.116-1.954,3.256C22.673,32.575,22.076,33.715,21.479,34.8ZM35.372,20.093c1.3,1.411,2.551,2.93,3.745,4.5-1.248-.054-2.5-.109-3.745-.109s-2.5.054-3.745.109C32.821,23.024,34.07,21.5,35.372,20.093ZM47.42,31.49l-1.954-3.256c2.062.271,4.016.6,5.861,1.031-.6,1.791-1.248,3.69-2.062,5.59C48.668,33.715,48.071,32.575,47.42,31.49ZM17.843,22.7c-.923-5.7-.163-9.714,2.062-11.016a3.666,3.666,0,0,1,1.9-.488c3.256,0,7.326,2.659,11.4,6.675a71.337,71.337,0,0,0-5.644,7.055A73.781,73.781,0,0,0,18.6,26.28c-.326-1.248-.543-2.442-.76-3.582ZM4.439,38.436c0-2.551,3.093-5.264,8.52-7.272a32.539,32.539,0,0,1,3.473-1.14,79.1,79.1,0,0,0,3.256,8.466A68.383,68.383,0,0,0,16.432,46.9C8.943,44.731,4.439,41.475,4.439,38.436ZM19.906,65.19c-2.225-1.3-2.985-5.318-2.062-11.016a32.679,32.679,0,0,1,.76-3.582,64.473,64.473,0,0,0,8.954,1.357A78.3,78.3,0,0,0,33.2,59c-4.016,3.962-8.086,6.675-11.4,6.675a3.666,3.666,0,0,1-1.9-.488Zm33-11.016c.923,5.7.163,9.714-2.062,11.016a3.666,3.666,0,0,1-1.9.488c-3.256,0-7.326-2.659-11.4-6.675a71.338,71.338,0,0,0,5.644-7.055,73.781,73.781,0,0,0,8.954-1.357C52.467,51.84,52.684,53.034,52.9,54.174Zm4.884-8.466a32.537,32.537,0,0,1-3.473,1.14,79.1,79.1,0,0,0-3.256-8.466,68.384,68.384,0,0,0,3.256-8.412C61.8,32.141,66.3,35.4,66.3,38.436,66.3,40.987,63.157,43.7,57.785,45.708Z" transform="translate(-1.4 -8.1)"/></g><g transform="translate(1642 283)"><path class="s" d="M0,8.934l27.653.088,7.858,13.573L43.517,9.022,71,8.934,35.592,70.027Zm70.434.354L56.922,9.3,35.58,45.937,14.25,9.3.523,9.288,35.585,69.133Zm-13.95,0-12.616.093-8.35,13.671L27.3,9.376,14.656,9.283,35.585,45.047ZM14.42,9.188l12.759,0m-12.759,0,12.759,0" transform="translate(0 -8.934)"/><path class="ad" d="M26,9.393l12.759,0L47.1,23.242,55.407,9.4l12.748,0L47.16,45.814Z" transform="translate(-11.577 -9.138)"/><path class="ae" d="M.911,9.492l13.9-.095,21.162,36.42,21-36.417L70.9,9.414,35.974,69.354Z" transform="translate(-0.406 -9.14)"/></g><g transform="translate(0 18.282)"><g transform="translate(1238 541.827)"><path class="af" d="M118.627,70.141a1.36,1.36,0,0,0-1.984-1.248s-2.869,2.227-5.394,1.975-1.733-5.879-1.733-5.879.54-5.171-.932-5.59-3.317,1.351-3.317,1.351A18.633,18.633,0,0,0,101.9,66.5l-.3.1s.345-5.646-.047-6.931c-.3-.643-3.019-.6-3.466.54S95.466,69.274,95.3,72.591c0,0-4.258,3.615-7.975,4.211s-4.6-1.733-4.6-1.733,10.1-2.795,9.754-10.891-8.143-5.087-9.028-4.425-5.413,3.373-6.736,10.965c0,.261-.121,1.388-.121,1.388A34.909,34.909,0,0,1,70.5,75.423s6.093-10.248-1.342-14.906c-3.363-2.05-6.037,2.236-6.037,2.236s10.052-11.18,7.826-20.645c-1.062-4.5-3.317-4.984-5.376-4.258a9.372,9.372,0,0,0-4.323,3.074,34.583,34.583,0,0,0-5,14.655c-.932,8.767-2.329,19.36-2.329,19.36s-1.929,1.863-3.727,1.984-.988-5.3-.988-5.3,1.388-8.217,1.286-9.605-.2-2.133-1.863-2.627S45.2,60.973,45.2,60.973s-4.658,7.127-5.1,8.217l-.252.447-.252-.3s3.317-9.708.149-9.857-5.236,3.466-5.236,3.466-3.587,6.046-3.727,6.7l-.252-.3s1.481-7.034,1.193-8.767A1.593,1.593,0,0,0,29.8,59.194s-2.078-.252-2.627,1.09a98.009,98.009,0,0,0-2.795,13.043s-5.2,3.727-8.618,3.727-3.074-2.171-3.074-2.171,12.512-4.22,9.13-12.689A6.2,6.2,0,0,0,15.978,59.4c-2.525.047-5.59,1.593-7.612,6.149a19.76,19.76,0,0,0-1.444,5.795h0s-2.264.447-3.456-.54-1.863,0-1.863,0-2.059,2.562,0,3.354a24.848,24.848,0,0,0,5.171,1.081h0a9.549,9.549,0,0,0,3.605,5.655c3.727,2.795,10.844-.242,10.844-.242l2.925-1.63s.121,2.739,2.227,3.1,3.019,0,6.736-9.018c2.18-4.6,2.338-4.388,2.338-4.388l.252-.047s-1.686,8.813-1.043,11.18,3.466,2.133,3.466,2.133,1.537.261,2.795-4.1A65.214,65.214,0,0,1,44.5,68.715h.27s-1.043,9.046.54,11.925S51,81.628,51,81.628a28.61,28.61,0,0,0,3.317-1.863,11.673,11.673,0,0,0,8.217,2.376C73.284,80.025,77.1,77.175,77.1,77.175a8.869,8.869,0,0,0,7.565,5.115,12.559,12.559,0,0,0,10.1-3.615,3.991,3.991,0,0,0,2.227,3.615c2.273.941,3.81-4.379,3.81-4.379l3.81-10.546h.345s.2,6.876,3.959,7.956,8.664-2.534,8.664-2.534a2.534,2.534,0,0,0,1.043-2.646Zm-106.468.978c.149-5.888,4.015-8.469,5.348-7.183S18.345,68,15.82,69.731,12.158,71.119,12.158,71.119ZM62.374,48.294s3.512-9.158,4.36-4.658-7.379,17.7-7.379,17.7C59.449,58.346,62.374,48.294,62.374,48.294Zm4.211,25.5c-2.329,6.093-7.975,3.615-7.975,3.615s-.643-2.18,1.193-8.273,6.14-3.727,6.14-3.727,2.963,2.3.643,8.385Zm15.6-2.674s-.54-1.929,1.481-5.646,3.615-1.686,3.615-1.686,1.733,1.863-.252,4.658a5.832,5.832,0,0,1-4.845,2.674Z" transform="translate(-0.688 -37.575)"/><text class="ag" transform="translate(100.135 46.678)"><tspan x="0" y="0">®</tspan></text></g><g transform="translate(1414 552.98)"><path class="q" d="M40.53,77.82V50.74H42V55a5.57,5.57,0,0,0,.48-.6,7.28,7.28,0,0,1,6.64-4.12c3.35-.1,6.07,1.14,7.67,4.12a13.24,13.24,0,0,1,.32,12.14c-1.49,3.34-5.17,5-9.11,4.39a7.37,7.37,0,0,1-5.88-3.88V77.82ZM42,60.32c.13,1.32.18,2.26.33,3.18.58,3.62,2.72,5.77,6.08,6.16A6.91,6.91,0,0,0,56,65.27a11.77,11.77,0,0,0-.26-9.68,6.77,6.77,0,0,0-7.13-3.94,6.59,6.59,0,0,0-5.89,4.87,33.4,33.4,0,0,0-.72,3.8Z" transform="translate(-2.13 -50.198)"/><path class="q" d="M88.41,64a7.92,7.92,0,0,1-7.74,7c-6.16.31-9.05-3.78-9.51-8.5a13.62,13.62,0,0,1,1.2-7.5,8.37,8.37,0,0,1,8.71-4.67,8,8,0,0,1,7.1,6.09,41.089,41.089,0,0,1,.69,4.5H72.67c-.3,4.28,2,7.72,5.26,8.55,4.06,1,7.53-.76,8.79-4.62C87,63.86,87.51,63.72,88.41,64ZM72.67,59.55H87.14c-.09-4.56-2.93-7.86-6.78-7.91C76,51.57,72.86,54.75,72.67,59.55Z" transform="translate(-2.13 -50.198)"/><path class="q" d="M91.39,64.1h1.42A5.69,5.69,0,0,0,96.15,69a8.73,8.73,0,0,0,7.58-.2,3.41,3.41,0,0,0,2-3.35,3.09,3.09,0,0,0-2.08-3.09c-1.56-.58-3.22-.9-4.81-1.41A35.251,35.251,0,0,1,94,59.18c-2.56-1.25-2.72-6.12.18-7.66a10.21,10.21,0,0,1,9.76-.15,5.14,5.14,0,0,1,2.6,5.24h-1.22c0-.06-.11-.11-.11-.17-.15-3.89-3.41-5.09-6.91-4.75a9.17,9.17,0,0,0-3,.91,3.2,3.2,0,0,0,.26,5.82c1.54.56,3.15.92,4.73,1.36,1.27.35,2.59.58,3.82,1a4.51,4.51,0,0,1,3.1,4.07,4.81,4.81,0,0,1-2.59,5c-3.34,1.89-8.84,1.39-11.29-1a6.67,6.67,0,0,1-1.94-4.75Z" transform="translate(-2.13 -50.198)"/><path class="q" d="M125.21,56.61h-1.33a3.3,3.3,0,0,0-.09-.49,4.35,4.35,0,0,0-3.54-4.18,8.73,8.73,0,0,0-5.61.27,3.41,3.41,0,0,0-2.47,3.25,3.14,3.14,0,0,0,2.4,3.16c2,.62,4.05,1,6.08,1.56a17,17,0,0,1,1.94.59,5,5,0,0,1,.27,9.31,11.13,11.13,0,0,1-9,.09,6.24,6.24,0,0,1-3.76-6.06h1.3a7.29,7.29,0,0,0,11.1,4.64,3.57,3.57,0,0,0,1.92-3.34,3.09,3.09,0,0,0-2.11-3.07c-1.56-.58-3.22-.89-4.81-1.4a35.43,35.43,0,0,1-4.87-1.75c-2.5-1.23-2.7-6.06.15-7.6a10.07,10.07,0,0,1,9.92-.11A5.23,5.23,0,0,1,125.21,56.61Z" transform="translate(-2.13 -50.198)"/><path class="q" d="M38.1,70.51a2.29,2.29,0,0,1-2.84-1.08c-1.63-2.44-3.43-4.77-5.16-7.15l-.75-1c-2.06,2.76-4.12,5.41-6,8.16a2.2,2.2,0,0,1-2.7,1.06l7.73-10.37-7.19-9.37a2.39,2.39,0,0,1,2.85,1c1.67,2.44,3.52,4.77,5.36,7.24,1.85-2.45,3.68-4.79,5.39-7.21a2.15,2.15,0,0,1,2.68-1l-2.79,3.7c-1.25,1.65-2.48,3.31-3.78,4.92a1,1,0,0,0,0,1.49C33.29,64.07,35.66,67.25,38.1,70.51Z" transform="translate(-2.13 -50.198)"/><path class="q" d="M70.92,50.66v1.4a7.25,7.25,0,0,0-7.72,7.49q0,4.94,0,9.88v1.12H61.77V50.74h1.4V54.8C64.9,51.84,67.57,50.74,70.92,50.66Z" transform="translate(-2.13 -50.198)"/><path class="q" d="M2.13,60c.21-1,.34-2.09.63-3.11,1.73-6.15,8.78-8.71,13.63-4.9,2.84,2.23,3.55,5.39,3.41,8.95H3.8C3.54,67.3,8.13,71.14,14,69.18a6.09,6.09,0,0,0,3.87-4.31c.31-1,.81-1.17,1.76-.88a8.12,8.12,0,0,1-3.88,5.93A9.4,9.4,0,0,1,4.8,68.52a9.85,9.85,0,0,1-2.46-5.78,4.791,4.791,0,0,0-.2-1Q2.13,60.85,2.13,60Zm1.69-.43H18.29c-.09-4.61-3-7.88-6.88-7.91C7.09,51.6,4,54.8,3.81,59.55Z" transform="translate(-2.13 -50.198)"/></g><g transform="translate(1596 551.969)"><path class="q" d="M10.3,67.8C8.7,65.2,7.1,62,5.5,60H1V79H5V66c1,.8,1.2,1.8,1.8,2.6.6.9,1.2,1.8,1.8,2.6s.9,1.7,1.5,2.6c1.7-2.7,2.9-5.2,4.9-8V79h5V60H15.2c-1.6,2-3.2,5.2-4.9,7.8ZM123,71.9c.6-.4,1.2-.9,1.7-1.3a5.262,5.262,0,0,0,2.2-4,16.152,16.152,0,0,0,0-2.2l-.1-.7a6.5,6.5,0,0,0-1.1-2.2c-.5-.8-1.3-1-1.9-1.5a12.85,12.85,0,0,0-3.4-.7c-2.7.1-5.6,0-8.4,0h-.9V78.9h5v-6h2.7c1.3,2,2.7,4,3.9,6h4.7c-1.4-1.9-3-4.8-4.4-7Zm-.6-5a2.255,2.255,0,0,1-1.8,1.3,7.719,7.719,0,0,1-1.5.2h-3.2V62.9h3.9a2.768,2.768,0,0,1,1.3.3,2.942,2.942,0,0,1,1.5,1.6c.5.8.4,1.2-.2,2.1ZM25,79H39V75H29V70.6c0-.1.1.4.2.4H38V68H29V64H39V60H25Zm43.9-4.7c.1-1.3.1-2.5.1-3.7,0-.1-.1.4,0,.4h9V68H69V64H79V60H65V79H79V74.3H68.9ZM44,63.1h5.7s.2,0,.2.1V77.8h4V63.9h5v-4h-15c.1,1.1.1,2,.1,3.2Z" transform="translate(-1 -49.4)"/><g transform="translate(76.7)"><path class="ah" d="M105.7,64.3a.472.472,0,0,0,.5-.5.367.367,0,0,0-.1-.3l-6.6-6.1,5.8,6.6c.1.2.2.3.4.3Zm1.4,3.4L92.7,54.6l13.1,14.3a1.421,1.421,0,0,0,.6.2.789.789,0,0,0,.8-.8A.56.56,0,0,0,107.1,67.7Zm-6.3,8.8L80.1,57.4,99.2,78.2a1.268,1.268,0,0,0,.9.4,1.216,1.216,0,0,0,1.2-1.2A2.622,2.622,0,0,0,100.8,76.5ZM77.7,49.4l25.3,27a1.136,1.136,0,0,0,.8.3,1.216,1.216,0,0,0,1.2-1.2,1.854,1.854,0,0,0-.2-.7c-.1,0-27.1-25.4-27.1-25.4Zm28.8,21.8L85.8,52.1l19.1,20.8a1.268,1.268,0,0,0,.9.4,1.216,1.216,0,0,0,1.2-1.2A2.622,2.622,0,0,0,106.5,71.2Zm-10,5.9c0-.1-.1-.1,0,0L82.1,64,95.2,78.3a1.421,1.421,0,0,0,.6.2.789.789,0,0,0,.8-.8A.56.56,0,0,0,96.5,77.1Zm-11-6.6,5.8,6.6c.1.1.2.3.4.3a.472.472,0,0,0,.5-.5.367.367,0,0,0-.1-.3c-.1-.1-6.6-6.1-6.6-6.1Z" transform="translate(-77.7 -49.4)"/></g></g><path class="ai" d="M68.589,18.816,43.45,4.218a5.421,5.421,0,0,0-5.248,0l-25.408,14.6A5.462,5.462,0,0,0,10,23.418V52.574a5.508,5.508,0,0,0,2.824,4.608l6.713,3.813c3.208,1.58,4.342,1.58,5.8,1.58,4.751,0,7.464-2.873,7.464-7.883V25.907c0-.406-.212-1.011-.611-1.011H28.988c-.406,0-1.315.6-1.315,1.011V54.691c0,2.221-2.009,4.431-5.764,2.554l-6.936-4a.787.787,0,0,1-.412-.673V23.418c0-.275.316-.551.56-.692L40.446,8.154a.887.887,0,0,1,.82,0L66.284,22.723c.239.144.155.412.155.695V52.574c0,.278.1.549-.132.683L41.173,67.837a.714.714,0,0,1-.719,0L34.008,63.99a.622.622,0,0,0-.612-.049,16.777,16.777,0,0,1-3.807,1.735c-.414.144-1.024.395.234,1.1l8.436,4.991a5.317,5.317,0,0,0,5.31,0L68.589,57.182A5.136,5.136,0,0,0,71,52.574V23.418a5.119,5.119,0,0,0-2.411-4.6ZM48.715,47.954c-6.685,0-8.157-1.844-8.648-5.168-.057-.358-.361-.786-.725-.786H36.074c-.4,0-.729.49-.729.893,0,4.256,2.314,9.413,13.37,9.413,8,0,12.592-3.11,12.592-8.614,0-5.457-3.687-6.889-11.449-7.916-7.846-1.037-8.643-1.561-8.643-3.4,0-1.515.675-3.536,6.484-3.536,5.191,0,7.1,1.114,7.891,4.613a.72.72,0,0,0,.707.565h3.28a.75.75,0,0,0,.536-.226.738.738,0,0,0,.191-.558C59.8,27.209,55.8,24.4,47.7,24.4c-7.2,0-11.5,3.041-11.5,8.138,0,5.529,4.274,7.057,11.186,7.74,8.269.811,8.912,2.019,8.912,3.646,0,2.825-2.268,4.028-7.587,4.028Z" transform="translate(1109 528.177)"/></g><g transform="translate(0 7)"><g transform="translate(1272 703)"><path class="aj" d="M103.323,75.178A5.632,5.632,0,0,1,97.7,80.8H7.121A5.632,5.632,0,0,1,1.5,75.178V42.921A5.632,5.632,0,0,1,7.121,37.3H97.7a5.632,5.632,0,0,1,5.621,5.621Z" transform="translate(-1.5 -37.3)"/><path class="c" d="M20.645,45.6h4.888V67.92a30.387,30.387,0,0,1-6.272.652c-5.865,0-8.96-2.688-8.96-7.739,0-4.888,3.258-8.146,8.309-8.146a8.879,8.879,0,0,1,2.118.244V45.6Zm0,11.241a5.644,5.644,0,0,0-1.629-.244c-2.444,0-3.829,1.466-3.829,4.154,0,2.607,1.385,3.991,3.829,3.991a5.82,5.82,0,0,0,1.629-.163ZM33.19,53.094v11.16c0,3.829-.244,5.7-1.14,7.331a7.733,7.733,0,0,1-3.91,3.584l-4.48-2.118c2.118-.977,3.177-1.874,3.829-3.258s.9-3.014.9-7.168V53.094Zm-4.806-7.413H33.19V50.65H28.384Zm7.739,8.472a14.778,14.778,0,0,1,6.354-1.466c2.444,0,4.073.652,4.806,1.955.407.733.57,1.629.57,3.666v9.775a51.709,51.709,0,0,1-6.924.57c-4.073,0-5.865-1.385-5.865-4.562,0-3.421,2.444-4.969,8.309-5.458V57.574c0-.9-.407-1.222-1.629-1.222a12.626,12.626,0,0,0-5.7,1.466V54.153h.081Zm7.494,7.657c-3.177.326-4.236.815-4.236,2.036,0,.978.57,1.385,1.874,1.385a12.112,12.112,0,0,0,2.281-.244V61.81Zm6.6-7.983a29.65,29.65,0,0,1,7.576-1.059c2.444,0,4.236.57,5.295,1.629.978,1.059,1.3,2.2,1.3,4.562v9.449H59.582V59.122c0-1.874-.652-2.525-2.362-2.525a8.408,8.408,0,0,0-2.2.326V68.408H50.215ZM66.262,71.015a10.913,10.913,0,0,0,5.132,1.3c3.177,0,4.48-1.3,4.48-4.317V67.92a6.4,6.4,0,0,1-3.1.652c-4.236,0-6.924-2.77-6.924-7.168,0-5.458,3.991-8.553,11-8.553a34.927,34.927,0,0,1,6.272.652L81.495,57c-1.3-.244-.081,0-1.059-.163v.489l.081,2.036v2.607a15.7,15.7,0,0,0,.081,1.955v1.3c0,4.154-.326,6.109-1.385,7.657-1.466,2.362-4.073,3.5-7.82,3.5a12.635,12.635,0,0,1-5.213-.978v-4.4h.081Zm9.612-14.337h-.489a6.041,6.041,0,0,0-2.77.652,3.794,3.794,0,0,0-1.792,3.5c0,2.444,1.222,3.829,3.34,3.829a6.354,6.354,0,0,0,1.792-.326V56.678h-.081ZM90.7,52.687c4.806,0,7.739,3.014,7.739,7.983,0,5.05-3.1,8.227-7.983,8.227-4.806,0-7.82-3.014-7.82-7.9C82.717,55.864,85.812,52.687,90.7,52.687Zm-.081,12.219c1.874,0,2.933-1.548,2.933-4.236,0-2.607-1.059-4.236-2.933-4.236S87.6,57.982,87.6,60.67C87.686,63.439,88.745,64.906,90.618,64.906Z" transform="translate(-3.132 -38.839)"/></g><g transform="translate(1632 681)"><path class="ak" d="M87.259,99.827c.122-.236.24-.444.34-.659a.269.269,0,0,1,.3-.162c.821.023,1.642.049,2.464.057.7.007,1.4-.006,2.1-.014.787-.009,1.574-.051,2.361-.028a7.232,7.232,0,0,1,3.015.7,5.665,5.665,0,0,1,2.571,2.525,6.312,6.312,0,0,1,.675,2.276,8.006,8.006,0,0,1-.327,3.419,6.075,6.075,0,0,1-2.536,3.231,8.228,8.228,0,0,1-3.043,1.176,18.869,18.869,0,0,1-3.478.151c-1.273.005-2.545-.022-3.818-.037-.223,0-.254-.044-.2-.257l.054-.2c.124-.39.191-.407.586-.473a2.052,2.052,0,0,0,.788-.3c.133-.088.188-.319.241-.5a1.834,1.834,0,0,0,.049-.489q.027-3.724.047-7.445c0-.627-.012-1.255-.047-1.882a.851.851,0,0,0-.781-.842c-.406-.08-.815-.143-1.223-.215l-.137-.043Zm11.652,6.011c-.055-.494-.082-.993-.17-1.48a5.074,5.074,0,0,0-1.622-2.986,6.344,6.344,0,0,0-5.037-1.334c-.417.035-.507.178-.514.607-.01.609-.02,1.218-.021,1.827q0,2.9,0,5.793c0,.549.007,1.1.022,1.647a1.258,1.258,0,0,0,.77,1.253,5.1,5.1,0,0,0,2.686.244,4.189,4.189,0,0,0,3.149-2.336,7.292,7.292,0,0,0,.736-3.233Zm3.529,6.575a1.252,1.252,0,0,1,.258-.778c.041-.062.183-.059.281-.078l.831-.165a.594.594,0,0,0,.489-.547,4.359,4.359,0,0,0,.056-.574c.018-1.52.036-3.04.043-4.56s0-3.044,0-4.566l-.007-.291a.778.778,0,0,0-.752-.815l-1.053-.16c-.13-.017-.177-.08-.13-.195a3.535,3.535,0,0,1,.273-.577c.043-.065.187-.091.284-.088.5.007,1.006.045,1.509.044l4.379-.026a5.021,5.021,0,0,1,2.415.55,2.623,2.623,0,0,1,1.432,2.065,2.666,2.666,0,0,1-.876,2.467,7.263,7.263,0,0,1-1.019.668l-.112.07c.317.117.62.217.914.338a3.272,3.272,0,0,1,1.908,1.785,3.44,3.44,0,0,1,.117,2.14,3.832,3.832,0,0,1-1.973,2.446,6.364,6.364,0,0,1-2.933.9c-.964.049-1.932.03-2.9.041l-.56,0q-1.4-.032-2.793-.07ZM106.454,108h.009c0,.477-.007.954,0,1.431a4.651,4.651,0,0,0,.062.923,1.136,1.136,0,0,0,.8.973,4.835,4.835,0,0,0,2.043.09,2.418,2.418,0,0,0,1.907-1.389,3.314,3.314,0,0,0,.223-1.9,2.457,2.457,0,0,0-1.344-1.9,3.636,3.636,0,0,0-1.6-.455c-.635-.024-1.271-.025-1.906-.045-.178-.005-.2.086-.2.232,0,.677,0,1.355,0,2.033Zm1.352-3.244c.347-.017.74-.022,1.131-.062a1.723,1.723,0,0,0,1.55-1.166,3.1,3.1,0,0,0,.138-1.115,2.176,2.176,0,0,0-1.5-2.123,5.975,5.975,0,0,0-2.213-.241c-.3.008-.439.141-.443.446l-.045,3.979c0,.158.066.226.22.231l1.16.051Z" transform="translate(-27.003 -29.522)"/><path class="al" d="M8.777,113.32,8.724,114c-.493,0-.947,0-1.4,0-.856.009-1.712.022-2.569.035l-.083.005c-.122-.014-.345-.014-.351-.051a2.883,2.883,0,0,1-.015-.628c0-.024.084-.054.133-.066l.666-.149a.652.652,0,0,0,.581-.716c.022-.483.045-.968.047-1.451.007-1.19,0-2.379,0-3.569a.582.582,0,0,0-.355-.6c-.309-.136-.619-.27-.931-.4-.148-.059-.34-.092-.323-.291s.2-.255.379-.295c.726-.166,1.453-.328,2.177-.5.233-.057.457-.154.736-.251a3.858,3.858,0,0,1,.038.438l-.043.682a.306.306,0,0,0,.1.223c.035.027.151-.022.209-.067a6.7,6.7,0,0,1,2.022-1.115,2.363,2.363,0,0,1,2.847.971c.245.352.246.352.586.106a7.6,7.6,0,0,1,1.877-1.044,2.584,2.584,0,0,1,3.46,1.655,5.081,5.081,0,0,1,.261,1.692l-.014,3.84a.535.535,0,0,0,.406.6c.338.111.689.187,1.071.287l-.088.66c-.433,0-.832,0-1.231,0-.974.009-1.948.014-2.922.036-.17,0-.214-.038-.223-.2-.028-.508-.033-.507.446-.622l.161-.041c.468-.128.623-.271.627-.745.011-1.361.039-2.726-.03-4.084a1.9,1.9,0,0,0-2.556-1.8,3.765,3.765,0,0,0-1.225.59.345.345,0,0,0-.141.354c.038.6.062,1.2.067,1.8.009,1.052,0,2.1,0,3.156,0,.426.147.589.568.688l.626.144.116.026c.009.2.017.4.007.6-.006.125-.1.136-.212.134-.608-.015-1.217-.036-1.825-.034-.74,0-1.479.022-2.219.036H10.01c0-.212-.01-.415.007-.618,0-.049.089-.117.148-.132l.729-.154a.537.537,0,0,0,.475-.549,29.034,29.034,0,0,0,.005-4.371,2.678,2.678,0,0,0-.236-.83,1.76,1.76,0,0,0-2.182-.921,4.039,4.039,0,0,0-1.268.594.577.577,0,0,0-.274.5q0,2.18.009,4.359l.008.56a.624.624,0,0,0,.562.681c.249.057.5.095.784.147Z" transform="translate(-4.126 -31.193)"/><path class="am" d="M67.58,105.237a1.384,1.384,0,0,1-.291,1.41c-.4.37-.9.246-1.4.163.046.259.1.48.121.7a3.289,3.289,0,0,1-2.074,3.594,5.365,5.365,0,0,1-1.828.415.668.668,0,0,0-.617.521.562.562,0,0,0,.461.607,10.1,10.1,0,0,0,1.186.164c.851.1,1.711.141,2.552.294a2.155,2.155,0,0,1,1.757,2.616,3.929,3.929,0,0,1-1.775,2.6,5.635,5.635,0,0,1-5.048.838,2.742,2.742,0,0,1-2.013-2.091,1.4,1.4,0,0,1,.422-1.421c.492-.442,1.028-.836,1.543-1.254l.167-.167-.191-.134a1.85,1.85,0,0,1-1.109-1.184.343.343,0,0,1,.173-.436q.435-.262.865-.533a4.7,4.7,0,0,0,.394-.268c.171-.13.156-.228-.049-.3a2.821,2.821,0,0,1-1.226-.821,3.1,3.1,0,0,1-.657-2.252,3.011,3.011,0,0,1,1.9-2.672,4.7,4.7,0,0,1,4.068-.1,3.369,3.369,0,0,0,1.587.226,1.586,1.586,0,0,0,1.08-.515Zm-4.96,9.191a2.074,2.074,0,0,0-1.92.72,1.573,1.573,0,0,0,0,2.3,2.868,2.868,0,0,0,1.829.829,3.907,3.907,0,0,0,2.359-.358,1.892,1.892,0,0,0,1.005-2.066,1.561,1.561,0,0,0-1.25-1.161,8.053,8.053,0,0,0-2.026-.259Zm-1.985-6.457c.037.281.052.565.115.839a2.166,2.166,0,0,0,1.179,1.654,1.548,1.548,0,0,0,2.257-.954,3.517,3.517,0,0,0-.082-2.373,1.821,1.821,0,0,0-.66-.858,1.7,1.7,0,0,0-2.555.543A2.861,2.861,0,0,0,60.636,107.972Z" transform="translate(-19.109 -31.202)"/><path class="an" d="M46.061,105.027a2.024,2.024,0,0,1,.082.406c0,.269-.027.538-.042.807v.233l.228-.174a6.025,6.025,0,0,1,2.073-1.186,2.609,2.609,0,0,1,3.273,1.78,5.681,5.681,0,0,1,.249,1.675c.014,1.266.023,2.531.036,3.8,0,.454.057.536.486.667a5.362,5.362,0,0,0,.747.166c.138.022.2.076.191.212v.125c-.005.524-.041.548-.549.547-1.216,0-2.432.005-3.648.015-.362,0-.363.014-.4-.344l-.007-.206c.022-.309.03-.306.333-.351a5.751,5.751,0,0,0,.607-.13.439.439,0,0,0,.331-.407,2.229,2.229,0,0,0,.031-.309c-.017-1.383.005-2.767-.07-4.148a1.772,1.772,0,0,0-2.035-1.706,2.934,2.934,0,0,0-1.5.539.918.918,0,0,0-.358.837q.009,1.94.032,3.88c0,.283.011.567.038.848a.471.471,0,0,0,.438.5c.288.064.583.1.891.152l.026.238c.01.554-.048.6-.586.594-1.258-.005-2.515,0-3.772.017-.2,0-.282-.059-.277-.252l0-.083c-.033-.5-.018-.518.454-.6l.223-.045c.512-.115.643-.252.65-.771.024-1.646.033-3.291.049-4.937a.51.51,0,0,0-.307-.518c-.309-.136-.62-.266-.933-.394-.173-.071-.37-.116-.376-.354,0-.168.175-.317.421-.367.494-.1.992-.183,1.479-.306s.963-.283,1.495-.443Z" transform="translate(-14.732 -31.17)"/><path class="am" d="M81.449,109.351a4.638,4.638,0,0,1-1.51,3.713,4.9,4.9,0,0,1-5.282.7A3.6,3.6,0,0,1,73,112.056a5.4,5.4,0,0,1-.4-3.617,3.948,3.948,0,0,1,2.146-2.7,5.078,5.078,0,0,1,3.632-.514,3.972,3.972,0,0,1,3,3.383c.041.294.057.591.071.744Zm-1.868.833-.062-.007c0-.145.008-.29,0-.435a4.8,4.8,0,0,0-.779-2.519,2.627,2.627,0,0,0-2.053-1.2,1.969,1.969,0,0,0-2.1,1.487,5.542,5.542,0,0,0,.478,4.366,2.7,2.7,0,0,0,1.492,1.282,2.012,2.012,0,0,0,2.791-1.466C79.468,111.2,79.5,110.687,79.581,110.184Z" transform="translate(-22.929 -31.195)"/><path class="an" d="M37.4,109.468a4.961,4.961,0,0,1-.968,3.009,4.53,4.53,0,0,1-2.874,1.671,4.283,4.283,0,0,1-3.7-.882,3.738,3.738,0,0,1-1.1-1.61,5.543,5.543,0,0,1-.241-3.159,3.892,3.892,0,0,1,1.906-2.619,5.047,5.047,0,0,1,3.762-.678,3.876,3.876,0,0,1,3.089,3.22C37.349,108.764,37.359,109.119,37.4,109.468Zm-1.889.728-.05-.007v-.207a4.9,4.9,0,0,0-.83-2.817,2.618,2.618,0,0,0-1.813-1.125,2.015,2.015,0,0,0-2.34,1.572,5.72,5.72,0,0,0,.3,3.867,2.916,2.916,0,0,0,1.709,1.679,2.015,2.015,0,0,0,2.788-1.474c.12-.485.157-.991.231-1.488Z" transform="translate(-10.804 -31.194)"/><path class="ao" d="M77.526,33.544a31.65,31.65,0,0,1,1.74,7.915A34.816,34.816,0,0,1,78.7,51.5l-.091.265a4.474,4.474,0,0,0-.669.007c-1.843.29-3.684.59-5.526.889-1.9.309-3.81.605-5.71.934-.673.116-1.507-.022-1.779.908l-.13.044.092-5.565-.093-13.428.887-.152c1.45-.237,2.9-.478,4.353-.71q2.6-.412,5.2-.811c.765-.117,1.532-.227,2.3-.341Z" transform="translate(-20.82 -11.508)"/><path class="ap" d="M56.981,70.409c-.936-.8-1.9-1.574-2.8-2.42a34.655,34.655,0,0,1-10.1-16.371,26.5,26.5,0,0,1-.9-5.421,30.427,30.427,0,0,1-.085-3.862A45.366,45.366,0,0,1,44.83,32.288l.055-.076a1.612,1.612,0,0,1,.286.389q1.461,4.3,2.9,8.61,4.533,13.537,9.067,27.075a2.156,2.156,0,0,0,.323.479Z" transform="translate(-14.841 -11.141)"/><path class="aq" d="M77.309,25.452c-.766.114-1.532.224-2.3.341q-2.6.4-5.2.811c-1.452.23-2.9.472-4.353.71l-.887.152-.007-.578c-.03-.475-.079-.951-.086-1.426l-.1-9.1q-.035-2.847-.1-5.694c-.024-1.179-.049-2.359-.1-3.537-.029-.633-.131-1.263-.172-1.9-.024-.364.008-.731.016-1.1.452.876.9,1.759,1.36,2.629a16.767,16.767,0,0,0,2.959,3.494A38.99,38.99,0,0,1,77.309,25.452Z" transform="translate(-20.603 -3.416)"/><path class="ar" d="M64.641,61.467l.13-.044c.272-.931,1.105-.792,1.779-.908,1.9-.329,3.806-.626,5.71-.934,1.842-.3,3.683-.6,5.526-.889a4.474,4.474,0,0,1,.669-.007c-.344,1.229-.615,2.485-1.052,3.681a41.275,41.275,0,0,1-1.734,3.976,27.249,27.249,0,0,1-3.518,5.406c-1.063,1.277-2.247,2.459-3.433,3.626-.657.644-1.429,1.17-2.15,1.75L66.381,77l-.672-.574-.7-1.525a22.94,22.94,0,0,1-.772-5.448l.013-.31.095-1.344c.031-.459.073-.917.093-1.376.07-1.65.132-3.3.2-4.952Z" transform="translate(-20.669 -18.423)"/><path class="as" d="M60.192,50.434c-.065,1.651-.128,3.3-.2,4.954-.02.46-.061.918-.093,1.376l-.423.16c-.941-2.77-1.882-5.51-2.8-8.257-1.523-4.545-3.027-9.1-4.547-13.644q-1.841-5.5-3.71-11a1.9,1.9,0,0,0-.341-.457l2.711-4.985a2.873,2.873,0,0,1,.275.487q1.881,5.567,3.747,11.138,2.422,7.252,4.832,14.506a5.939,5.939,0,0,0,.272.588l.371-.432q-.047,2.783-.092,5.565Z" transform="translate(-16.221 -7.39)"/><path class="at" d="M47.388,25.458a1.858,1.858,0,0,1,.341.457q1.867,5.5,3.71,11c1.521,4.547,3.025,9.1,4.547,13.644.921,2.747,1.862,5.487,2.8,8.257l.423-.16L59.118,60l-.086.309c-.147,1.471-.271,2.944-.451,4.412-.09.736-.282,1.458-.428,2.185a2.18,2.18,0,0,1-.323-.479q-4.541-13.535-9.067-27.075-1.443-4.309-2.9-8.61a1.612,1.612,0,0,0-.286-.389l1.812-4.9Z" transform="translate(-15.533 -9.282)"/><path class="au" d="M61.313,43.194l-.371.432a5.939,5.939,0,0,1-.272-.588q-2.42-7.253-4.832-14.506-1.861-5.573-3.747-11.138a2.874,2.874,0,0,0-.275-.487l3.352-4.41a1.777,1.777,0,0,1,.311.425q1.4,4.088,2.77,8.182c.857,2.55,1.7,5.1,2.567,7.648.058.17.26.291.4.436l.007.578Z" transform="translate(-17.25 -5.716)"/><path class="av" d="M62.485,26.613c-.136-.144-.337-.265-.4-.436-.866-2.546-1.711-5.1-2.567-7.648q-1.376-4.094-2.77-8.182a1.777,1.777,0,0,0-.311-.425c1.09-1.068,2.146-2.174,3.281-3.192a4.546,4.546,0,0,0,1.856-3.3l.08-.285.287.723c-.007.365-.04.732-.016,1.1.041.633.144,1.263.172,1.9.053,1.178.078,2.358.1,3.537q.058,2.846.1,5.694l.1,9.1c.007.476.057.952.086,1.427Z" transform="translate(-18.523 -3.141)"/><path class="aw" d="M62.746,80.135c.146-.728.338-1.45.428-2.185.18-1.467.3-2.941.451-4.412l.037-.006.036.007a22.94,22.94,0,0,0,.772,5.448,1.688,1.688,0,0,0-.287.388c-.4,1.135-.782,2.28-1.187,3.414a1.686,1.686,0,0,1-.318.412l-.414-1.421.482-1.644Z" transform="translate(-20.125 -22.512)"/><path class="ax" d="M62.835,85.271a1.7,1.7,0,0,0,.318-.412c.4-1.134.784-2.279,1.187-3.414a1.667,1.667,0,0,1,.287-.388l.7,1.525a2.7,2.7,0,0,0-.4.587l-1.331,3.908c-.055.157-.241.267-.367.4Z" transform="translate(-20.282 -24.583)"/><path class="ay" d="M63.367,88.056c.125-.133.312-.243.367-.4l1.331-3.908a2.672,2.672,0,0,1,.4-.587l.673.573a1.182,1.182,0,0,0-.4,1.161l-.2.669a1.377,1.377,0,0,0-.273.346c-.465,1.331-.907,2.669-1.376,4a1.9,1.9,0,0,1-.339.45l-.185-2.3Z" transform="translate(-20.429 -25.161)"/><path class="az" d="M63.618,91.271a1.865,1.865,0,0,0,.339-.45c.468-1.33.912-2.668,1.376-4a1.389,1.389,0,0,1,.273-.346l-.282,3.07c-.075.087-.184.163-.22.264L64.166,92.5a3.462,3.462,0,0,1-.291.519c-.088-.115-.244-.225-.252-.344-.028-.465-.008-.934-.006-1.4Z" transform="translate(-20.495 -26.074)"/><path class="ba" d="M63.977,94.183a3.461,3.461,0,0,0,.291-.519l.938-2.688c.036-.1.146-.177.22-.264l.007,2.015-.675,1.73Z" transform="translate(-20.596 -27.24)"/><path class="bb" d="M65.055,95.223l.675-1.73.139,2.047Z" transform="translate(-20.893 -28.005)"/><path class="az" d="M66.634,85.113a1.184,1.184,0,0,1,.4-1.161l.187.128Z" transform="translate(-21.319 -25.379)"/><path class="as" d="M64.214,73.424l-.036-.007-.037.006.086-.309Z" transform="translate(-20.642 -22.397)"/></g><g transform="translate(1113 684)"><path class="bc" d="M45.888,1.988a46.116,46.116,0,0,0-7.717.659C31.338,3.853,30.1,6.38,30.1,11.041V17.2H46.246v2.051H24.037a10.082,10.082,0,0,0-10.088,8.188,30.177,30.177,0,0,0,0,16.411c1.148,4.781,3.889,8.187,8.582,8.187h5.553V44.655A10.261,10.261,0,0,1,38.172,34.623H54.3a8.136,8.136,0,0,0,8.074-8.206V11.042c0-4.377-3.692-7.664-8.074-8.395a50.442,50.442,0,0,0-8.414-.659Zm-8.733,4.95a3.078,3.078,0,1,1-3.03,3.087,3.065,3.065,0,0,1,3.03-3.087Z" transform="translate(-12.812 -1.987)"/><path class="bd" d="M73.536,28.38v7.171A10.357,10.357,0,0,1,63.448,45.788H47.319a8.238,8.238,0,0,0-8.074,8.206V69.372c0,4.376,3.8,6.95,8.074,8.205a27.029,27.029,0,0,0,16.13,0c4.065-1.178,8.074-3.546,8.074-8.205V63.217H55.393V61.165H79.6c4.693,0,6.443-3.273,8.075-8.187,1.686-5.058,1.613-9.923,0-16.411-1.16-4.672-3.375-8.188-8.075-8.188H73.536ZM64.464,67.32a3.078,3.078,0,1,1-3.03,3.068A3.047,3.047,0,0,1,64.464,67.32Z" transform="translate(-21.959 -11.12)"/><path class="be" d="M74.406,117.376c0,2.317-9.689,4.2-21.64,4.2s-21.64-1.879-21.64-4.2,9.688-4.2,21.64-4.2,21.64,1.878,21.64,4.2Z" transform="translate(-19.15 -40.466)"/></g><g transform="translate(1466 686)"><path d="M62.148,60.291c.49-4.075.343-4.673,3.378-4.013l.77.067a17.565,17.565,0,0,0,7.182-1.209c3.862-1.792,6.151-4.783,2.344-4-8.686,1.792-9.283-1.149-9.283-1.149,9.172-13.608,13.005-30.883,9.7-35.111C67.209,3.346,51.585,8.8,51.324,8.94l-.084.016a30.954,30.954,0,0,0-5.794-.6A14.315,14.315,0,0,0,36.271,11.1S8.4-.385,9.695,25.539c.276,5.515,7.9,41.73,17,30.792,3.326-4,6.54-7.382,6.54-7.382a8.436,8.436,0,0,0,5.511,1.407l.155-.132a6.032,6.032,0,0,0,.062,1.558c-2.344,2.619-1.655,3.079-6.341,4.043-4.742.977-1.956,2.717-.138,3.171,2.205.551,7.306,1.332,10.753-3.492l-.137.55c.919.736.858,5.288.987,8.54s.348,6.287,1.011,8.077,1.445,6.4,7.6,5.078c5.148-1.1,9.083-2.688,9.442-17.457" transform="translate(-6.335 -4.545)"/><path d="M48.9,79.166A7.847,7.847,0,0,1,43.324,77.1,10.7,10.7,0,0,1,40.668,72.4L40.5,71.91c-.776-2.095-1.039-5.111-1.2-8.994-.024-.583-.04-1.184-.058-1.821-.013-.466-.029-1.05-.053-1.662a11.728,11.728,0,0,1-3.1.978,14.9,14.9,0,0,1-6.138-.316,7.164,7.164,0,0,1-4-2.383,6.411,6.411,0,0,1-6.485,1.53c-2.4-.8-4.554-3.054-6.576-6.885A61.756,61.756,0,0,1,8.763,41.788a99.543,99.543,0,0,1-3.852-17.9c-.4-8.075,1.77-13.85,6.46-17.163,7.4-5.226,18.609-2.153,22.7-.757a17.779,17.779,0,0,1,9.627-2.4,35.017,35.017,0,0,1,5.562.513,31.956,31.956,0,0,1,9.472-1.334c7.536.09,13.781,3.027,18.058,8.493,3.053,3.9,1.543,12.09.372,16.625a74.334,74.334,0,0,1-8.082,19.069,21.107,21.107,0,0,0,4.342-.518c3.914-.808,5.058,1.291,5.369,2.23,1.244,3.769-4.165,6.617-5.852,7.4a20.5,20.5,0,0,1-8.574,1.483l-.126-.008-.759-.067-.075.633-.072.618c-.194,7.485-1.263,12.225-3.463,15.357-2.306,3.284-5.511,4.2-8.334,4.809a12.593,12.593,0,0,1-2.632.3ZM43.167,51.924c1.758,1.407,1.913,4.055,2.05,9,.017.618.034,1.2.056,1.748.066,1.653.221,5.524.828,7.159.085.231.162.466.243.715.676,2.068,1.014,3.106,3.935,2.481,2.452-.526,3.713-1,4.7-2.4,1.434-2.042,2.236-6.151,2.384-12.211l2.984.072-2.963-.356.087-.74c.284-2.439.488-4.2,2.118-5.366a5.061,5.061,0,0,1,3.985-.63,4.462,4.462,0,0,1-1.761-2.616l-.249-1.226.7-1.037A67.967,67.967,0,0,0,71.377,26.37c1.813-7.018,1.26-10.745.707-11.45-7.316-9.349-20-5.489-21.329-5.051l-.224.121-1.123.209-.575-.119A28.143,28.143,0,0,0,43.6,9.538a11.332,11.332,0,0,0-7.323,2.14L34.914,12.71l-1.58-.651c-3.376-1.38-13.292-4.156-18.524-.45-2.9,2.057-4.227,6.088-3.933,11.981a96.3,96.3,0,0,0,3.6,16.454c3.014,9.871,5.752,13.151,6.9,13.532.2.067.717-.335,1.233-.954,3.35-4.029,6.537-7.388,6.671-7.529L31,43.276l2.089,1.388a5.533,5.533,0,0,0,2.725.937L40.8,41.351l-.722,7.366a3.03,3.03,0,0,0,.041.808l.217,1.4-.942,1.053-.109.122,2.737,1.263,1.145-1.435Z" transform="translate(-4.534 -2.744)"/><path class="bf" d="M75.822,51.14c-8.686,1.792-9.283-1.149-9.283-1.149,9.172-13.609,13.005-30.884,9.7-35.111C67.209,3.347,51.583,8.8,51.323,8.942l-.084.015a30.959,30.959,0,0,0-5.8-.6A14.315,14.315,0,0,0,36.269,11.1S8.4-.383,9.692,25.541c.276,5.516,7.9,41.731,17,30.792,3.326-4,6.539-7.382,6.539-7.382a8.436,8.436,0,0,0,5.51,1.407l.156-.132a6.061,6.061,0,0,0,.062,1.558c-2.344,2.619-1.656,3.079-6.342,4.043-4.742.977-1.956,2.717-.137,3.171,2.2.551,7.306,1.332,10.752-3.492l-.138.55c.919.736,1.564,4.786,1.456,8.457s-.181,6.192.543,8.16,1.445,6.4,7.605,5.078c5.148-1.1,7.815-3.962,8.187-8.73.263-3.39.859-2.889.9-5.92l.478-1.435c.551-4.6.087-6.078,3.259-5.388l.77.067a17.566,17.566,0,0,0,7.182-1.209C77.339,53.346,79.629,50.354,75.822,51.14Z" transform="translate(-6.334 -4.545)"/><path class="c" d="M50.374,78.462c-5.135,0-6.762-4.066-7.427-5.73-.974-2.437-1.185-11.9-.968-19.651a1,1,0,0,1,1.99.056c-.25,8.946.1,17.053.826,18.857,1.125,2.813,2.832,5.273,7.657,4.239,4.58-.982,6.3-2.719,7.06-7.149.586-3.4,1.746-13.069,1.889-14.977a1,1,0,1,1,1.985.148c-.149,1.987-1.3,11.638-1.912,15.167-.9,5.232-3.234,7.6-8.6,8.756a11.979,11.979,0,0,1-2.5.283ZM22.53,58.6a4.186,4.186,0,0,1-1.32-.218c-3.335-1.113-6.512-6.545-9.443-16.147A97.4,97.4,0,0,1,8,24.817c-.367-7.351,1.525-12.551,5.627-15.456,8.114-5.749,21.763-.274,22.34-.039a1,1,0,0,1-.753,1.843c-.132-.054-13.22-5.3-20.44-.178-3.507,2.486-5.117,7.106-4.786,13.73A96.579,96.579,0,0,0,13.67,41.653c2.616,8.572,5.594,13.981,8.169,14.84.4.135,1.634.545,3.393-1.57,3.309-3.981,6.349-7.159,6.38-7.19a1,1,0,0,1,1.437,1.377c-.03.031-3.024,3.161-6.286,7.086-1.545,1.858-3.026,2.4-4.233,2.4Zm43.309-8.387a.995.995,0,0,1-.825-1.551C74.286,34.9,77.54,18.281,74.753,14.719,71.245,10.236,66.292,7.9,60.029,7.76A27.667,27.667,0,0,0,51.1,9.05l-.152.062A1,1,0,0,1,50.1,7.319a2.36,2.36,0,0,1,.268-.11l-.013,0,.013,0a28.879,28.879,0,0,1,9.4-1.444C66.7,5.839,72.421,8.51,76.32,13.492c1.845,2.357,1.849,7.788.012,14.9a72.128,72.128,0,0,1-9.667,21.382A.99.99,0,0,1,65.839,50.213Zm.474,6.369a8.052,8.052,0,0,1-3.852-.732A2,2,0,0,1,61.4,54.238c-.238-4.186,2.071-4.914,3.249-5.247-.164-.248-.4-.54-.639-.841a14.842,14.842,0,0,1-2.352-3.791c-.114-.274-.469-.913-.881-1.652-2.233-4-6.878-12.334-3.894-16.6,1.381-1.974,4.131-2.752,8.184-2.318C63.874,20.156,58.2,8.8,44.728,8.575a13.012,13.012,0,0,0-9.87,3.7c-5.589,5.645-5.387,15.858-5.384,15.96a1,1,0,1,1-1.99.052c-.012-.453-.221-11.171,5.96-17.414A14.928,14.928,0,0,1,44.761,6.585a22.794,22.794,0,0,1,17.3,8.172c3.418,3.978,5.093,8.366,5.231,9.83a1.11,1.11,0,0,1-.837,1.339l-.359.008c-3.977-.637-6.528-.195-7.583,1.312-2.27,3.244,2.125,11.125,4,14.49.479.858.825,1.479.983,1.862a12.938,12.938,0,0,0,2.066,3.306A5.616,5.616,0,0,1,66.8,48.954c.082.143,1.241,1.859,8.122.439,1.725-.356,2.759-.052,3.075.9.622,1.881-2.868,4.075-4.8,4.972a18.034,18.034,0,0,1-6.884,1.314Zm-2.929-2.508c.218.22,1.311.6,3.572.5a15.786,15.786,0,0,0,5.4-1.114,11.393,11.393,0,0,0,3.277-2.178l-.312.057c-4.4.908-7.512.787-9.25-.36a3.842,3.842,0,0,1-.337-.25,4.911,4.911,0,0,1-.487.158c-.986.276-2,.563-1.869,3.184ZM34.963,59.635a14.139,14.139,0,0,1-3.418-.443c-1.217-.3-3.269-1.221-3.237-2.726.036-1.689,2.491-2.2,3.416-2.385,3.34-.688,3.557-.964,4.6-2.289.3-.386.683-.867,1.2-1.443a3.349,3.349,0,0,1,2.49-1.293,3.707,3.707,0,0,1,1.457.348,4.282,4.282,0,0,1,2.32,2.786,3.575,3.575,0,0,1-.443,3.123A9.936,9.936,0,0,1,34.963,59.635Zm-4.505-3.083a4.646,4.646,0,0,0,1.571.709,12.145,12.145,0,0,0,2.935.384,7.919,7.919,0,0,0,6.766-3.489,1.683,1.683,0,0,0,.149-1.418,2.365,2.365,0,0,0-1.168-1.5,1.942,1.942,0,0,0-.7-.2c-.11,0-.444,0-1.007.629-.475.531-.818.966-1.119,1.349-1.3,1.651-1.9,2.211-5.763,3.007a6.24,6.24,0,0,0-1.668.521Zm7.653-4.591a1,1,0,0,1-.982-.845c-.025-.165-.041-.331-.05-.5a9.731,9.731,0,0,1-6.838-3.073,11.122,11.122,0,0,1-2.931-9.311,43.907,43.907,0,0,0,.224-8.876c-.029-.5-.051-.855-.049-1.1,0-.315.008-1.15,2.8-2.566a15.561,15.561,0,0,1,5.159-1.607c3.6-.372,5.979,1.233,6.69,4.52,1.919,8.875.152,12.8-1.138,15.668-.24.534-.467,1.038-.649,1.526l-.16.43c-.682,1.828-1.271,3.408-1.09,4.587a1,1,0,0,1-.833,1.135l-.152.012ZM29.481,28.53l.039.71a45.79,45.79,0,0,1-.24,9.27,9.143,9.143,0,0,0,2.4,7.658,7.74,7.74,0,0,0,5.577,2.461H37.3a27.177,27.177,0,0,1,1.024-3.1l.159-.428c.205-.551.445-1.085.7-1.651,1.242-2.76,2.788-6.195,1.007-14.43a3.338,3.338,0,0,0-2.613-2.886c-2.887-.638-7.189,1.534-8.093,2.393Zm6.007-.422c-.05.352.644,1.291,1.55,1.417a1.669,1.669,0,0,0,1.727-.96c.049-.352-.644-.74-1.55-.866s-1.679.057-1.727.409Zm1.758,1.763-.254-.017a2.391,2.391,0,0,1-1.518-.947,1.293,1.293,0,0,1-.315-.845c.063-.459.623-.734,1.5-.734a4.365,4.365,0,0,1,.6.043,3.669,3.669,0,0,1,1.249.387c.568.317.609.671.584.853A1.937,1.937,0,0,1,37.246,29.87Zm-1.428-1.7a1.749,1.749,0,0,0,1.266,1.03l.163.011a1.434,1.434,0,0,0,1.186-.675,2.009,2.009,0,0,0-1.263-.505,3.632,3.632,0,0,0-.512-.037,1.436,1.436,0,0,0-.839.176Zm27.2-.777c.049.352-.644,1.291-1.549,1.417a1.673,1.673,0,0,1-1.729-.96c-.047-.352.646-.74,1.551-.866s1.677.057,1.727.409Zm-1.758,1.6a1.79,1.79,0,0,1-1.684-1.117c-.072-.528.8-.929,1.692-1.053a4.224,4.224,0,0,1,.58-.041c.772,0,1.284.226,1.335.592a1.354,1.354,0,0,1-.461.931,2.181,2.181,0,0,1-1.231.673Zm.588-1.879a3.954,3.954,0,0,0-.534.038c-.9.125-1.435.486-1.409.679a1.54,1.54,0,0,0,1.355.831l.185-.013a1.848,1.848,0,0,0,1.035-.573,1.146,1.146,0,0,0,.373-.656c-.017-.124-.349-.306-1.006-.306Zm2.473,20.487a1,1,0,0,1-.826-1.549c2.12-3.166,1.732-6.394,1.357-9.516A26.969,26.969,0,0,1,64.57,32.5a28.176,28.176,0,0,1,.383-3.562,18.184,18.184,0,0,0,.308-3.936,1,1,0,0,1,1.987-.107,20.031,20.031,0,0,1-.327,4.346,26.417,26.417,0,0,0-.361,3.323,25.137,25.137,0,0,0,.269,3.724c.4,3.32.851,7.083-1.679,10.861a1,1,0,0,1-.828.442Z" transform="translate(-5.697 -3.88)"/><path class="bg" d="M4.335,19.029" transform="translate(-4.335 -8.871)"/></g></g></g></svg>