<svg class="mywork-module--description-link--2BiHH" xmlns="http://www.w3.org/2000/svg" viewBox="0 0 18 18.018"><path id="Icon_awesome-link" data-name="Icon awesome-link" d="M11.482,6.518a5.341,5.341,0,0,1,.013,7.544l-.013.013L9.12,16.437a5.524,5.524,0,0,1-3.47,1.554,5.173,5.173,0,0,1-4.087-1.554,5.349,5.349,0,0,1,0-7.557l1.3-1.3a.562.562,0,0,1,.96.373A6.478,6.478,0,0,0,4.167,9.8a.566.566,0,0,1-.133.584l-.46.46a2.531,2.531,0,1,0,3.557,3.6l2.363-2.362a2.531,2.531,0,0,0,0-3.58,2.633,2.633,0,0,0-.364-.3.564.564,0,0,1-.244-.443A1.4,1.4,0,0,1,9.3,6.714l.74-.74a.565.565,0,0,1,.724-.061,5.361,5.361,0,0,1,.721.6Zm4.955-4.955a5.35,5.35,0,0,0-7.557,0L6.517,3.925,6.5,3.938a5.345,5.345,0,0,0,.734,8.149.565.565,0,0,0,.724-.061l.74-.74a1.4,1.4,0,0,0,.411-1.048.564.564,0,0,0-.244-.443,2.634,2.634,0,0,1-.364-.3,2.531,2.531,0,0,1,0-3.58l2.363-2.362a2.531,2.531,0,1,1,3.557,3.6l-.46.46a.566.566,0,0,0-.133.584,6.478,6.478,0,0,1,.341,1.853.562.562,0,0,0,.96.373l1.3-1.3a5.349,5.349,0,0,0,0-7.557Z" transform="translate(0 0)"/></svg>